<svg id="Layer_1" data-name="Layer 1" xmlns="http://www.w3.org/2000/svg" viewBox="0 0 388.09 493.29"><defs><style>.cls-1{fill:#979031;}.cls-2{fill:#080808;}.cls-3{fill:#95913a;}.cls-4{fill:#2a251c;}.cls-5{fill:#1f1f18;}.cls-6{fill:#753b17;}.cls-7{fill:#3f3931;}.cls-8{fill:#4e4c4a;}.cls-9{fill:#3f3d1f;}.cls-10{fill:#4b492a;}.cls-11{fill:#faef15;}.cls-12{fill:#c2d865;}.cls-13{fill:#ece311;}.cls-14{fill:#fefefe;}.cls-15{fill:#b3dfe6;}.cls-16{fill:#f0f0f0;}.cls-17{fill:#343105;}.cls-18{fill:#e82e1a;}.cls-19{fill:#dfdedc;}.cls-20{fill:#f7f7f7;}.cls-21{fill:#5eaed4;}.cls-22{fill:#d98446;}.cls-23{fill:#b36d39;}.cls-24{fill:#28240d;}.cls-25{fill:#64812d;}.cls-26{fill:#f6eb17;}.cls-27{fill:#adad38;}.cls-28{fill:#eee416;}.cls-29{fill:#575307;}.cls-30{fill:#0b0603;}</style></defs><path class="cls-1" d="M261,9.78l2.17-.36,4.83-2,2.61-1.53L275,2.42l2.05-.27L283,.75h5L294,2.14l2,.34c5,4.93,11.16,6.68,17.95,6.41,1.05,0,2.05-1.3,3.07-2l7.05-1.74c7.11-.5,13.88.43,19.78,4.86a.55.55,0,0,1,.27.68c.41.77.81,1.55,1.21,2.32l-.06,10c-1.72,5.08-3.58,10.12-5,15.28-.4,1.38.42,3.11.68,4.69l0,2.06q.69,4,1.39,8c.1.71.2,1.43.31,2.14.27,1,.54,1.91.82,2.86l.42,2,1.47,7,0,8q-1.56,3.84-3.13,7.68L340.43,86q0,8.7,0,17.39c-.51,2.31-.13,4,2.75,3.94l3.12,10.6c0,2.44,0,4.88,0,7.31L345,128.45,340,142l-1.88,3.27c-3,6.56-.77,13,.73,19.32,3.13,13.22,4.3,26.35-.7,39.39l-2.82,8.72q.21,6.18.43,12.36,1.14,5.69,2.29,11.38-.48,2.78-1,5.55c-2.16,7.23-4.5,14.42-6.43,21.71a72.22,72.22,0,0,0-2.72,14.63c-.23,4.39-1.36,7-6,7.39a8.83,8.83,0,0,0-2.69,1.25l-1.2,0h-3.79L301,284h-5l-16.88,1.81-3.22,0-3.91-.67-2-.82-1.87-.35-3.8-2.84c-4.9-.05-9.95-.87-14.67,0-7.11,1.36-14,3.92-21,6l-4.4.1-12.13-.9-2-1.94a22.52,22.52,0,0,0-4.23-2.22c-10.55-2.92-20.39,0-30.1,3.86l-3.47,1.39a20.2,20.2,0,0,0-2.93.55c-9,3.08-17.34,2.62-25.8-2.37-2.81-1.65-7.42-1.23-10.93-.48-5.65,1.21-11.08,3.48-16.6,5.3l-3-.3-2-.19-2.73.28-3.33-.51-2.56-1.44L98,286.77l-2.57-1.58L94,284.94l-5.57-2.75-.21.17-.24-.13c0-1,0-1.89,0-2.84l11.45,2.06c.44-2.41,1-4.81,1.32-7.23,1.25-8.2,2.81-16.19-3.46-23.61C89.16,241,88.9,229.79,94.7,219c4.44-8.25,5.82-15.38-2-22.14a3.06,3.06,0,0,1-.64-1.33c-4.16-11.81-6.21-23.63-.69-35.66a5.18,5.18,0,0,0-.31-4.09,34.83,34.83,0,0,0-5.15-7.3c-8.4-8.62-9.18-18.14-5.72-29.4,3-9.68,2.88-19.35-6.33-27.13A29.14,29.14,0,0,1,65.43,78.4c-1.31-4.52-.06-9.84.33-14.78.53-6.64,1-13-2.82-19.21-4.31-7-7.59-14.72-11.32-22.14L49.86,27c-.42-1.74-1.59-3.73-1.11-5.18,1.36-4.1,3.39-8,5.15-11.95l0,0L57,8.25l14,.12,3.85,1L77,9.79l5,1.33,3,.25,5.83,1.05,9.24-.09.92-.24,2.74-1.19L115,5.3l3-.16H122l2,.12,10.86,4.09,4.14.39,3,0,4.18-.34c1.68-.18,3.48,0,5-.61,5-1.86,10-3.94,14.89-6.07.78-.34,1.28-1.33,1.92-2L176.1.27h1.8L180,.85c5.83,3,11.64,6.1,17.52,9,.56.28,1.53-.27,2.31-.44l4.18.35,5,0,3.11-.51L229,2.31l2-.16H235l3.05.19,14.84,7.1,2.16.32Zm56.79,271.44c2.25.07,5.36-1.4,5.54-6.38.34-9.13,3.29-17.4,7.27-25.59a22.84,22.84,0,0,0,.86-18.87,30.62,30.62,0,0,1,1-25.68c7.34-14.17,4.89-28.07.83-42.18-2.57-9-1.33-17.26,3.16-25.36,5.07-9.13,5.78-19,1.28-28.22a26.28,26.28,0,0,1-.85-22.44c4.34-10.82,6.26-21.48,1.75-32.83-2.86-7.2-3.8-14.75-.67-22.33.88-2.13,1.1-4.51,1.78-6.73,1.37-4.47,2.3-9.15-1.53-12.61a12.54,12.54,0,0,0-14.5-1.76c-8.37,4.4-16.5,2.32-24.08-.58-11.16-4.26-21.34-3.74-31.51,2.2-6.28,3.66-12.77,2.87-19.19.34-3.54-1.4-6.95-3.14-10.5-4.53-1.82-.7-4-1.69-5.68-1.29a88.55,88.55,0,0,0-14.18,4.41c-10.06,4.19-19.64,4.8-29.64-.72-7.27-4-15.26-6.9-23.8-3.26-3.65,1.55-7.17,3.38-10.79,5-8.45,3.72-17,4.65-25.42.08-6.9-3.78-13.33-3.33-19.7.9-7.37,4.9-15.72,5-24,4.35-7.07-.59-14-2.26-21.07-3.4-6-1-9.6,3.25-7.33,8.87,1.86,4.59,3.4,9.82,6.7,13.2,8.87,9.11,10.77,18.61,6.85,30.82-2.65,8.26-1,17.3,7.78,22.3,10.15,5.79,11.75,14,8.56,26.28-3.14,12.07-4.67,23.31,5.75,33.16,4.55,4.29,5.85,10.14,3.21,16.56-1.5,3.64-2,7.7-2.83,11.59-1.32,5.95.6,10.95,4.33,15.6,9.79,12.22,12.22,16.42,2.56,29.77-4.55,6.28-5.84,18.34.71,24.56,2,1.91,3.44,4.47,5,6.82,2.87,4.28,4.69,8.52,2.11,13.92A31.54,31.54,0,0,0,105,278.24c-.4,5.1,1.73,7.33,6.74,6.82s10.06-1.12,14.37-3.22c8.08-3.94,15.74-4.61,23.74-.42,9.16,4.8,18,2.16,26.66-1.39,9.32-3.84,18.6-5.54,28.55-2.65A146,146,0,0,0,222,281.05c8.32,1.38,15.87-2.52,23.79-3.87,8.28-1.42,16.63-2.5,24.84,1,5.3,2.27,10.54,4.47,16.53.67,2.44-1.55,6.38-1.36,9.55-1C303,278.5,309.33,279.82,317.79,281.22Z" transform="translate(0.04 -0.27)"/><path class="cls-2" d="M260.18,453.75l1.89-.36,4.92-1.3,3.82-.24,2.34,0,1.86.19,5.82,3,.07.06,1.49,2,1.7,4.7,1.17,3.31-.05,5.62c-.38,1.11-.75,2.21-1.13,3.31-.16.58-.32,1.17-.49,1.75l-1.44,2.35-7.25,6.45L269,486.11l-4,0-16.2-4a.58.58,0,0,1-.78-.4c-1.07-.87-2.15-1.73-3.23-2.59a.63.63,0,0,1-.77-.39L237,467.44l-1,.53c.93,2.48,1.87,5,2.86,7.58-6.66,1.42-12.09-.81-17.4-3.6q-.69-9.48-1.37-19,1.37-3.17,2.74-6.33l2.57-3.52,3.73-2.74c.32-4,.74-8,.92-12.06.21-4.43.19-8.87.27-13.31l2.76-1a1.55,1.55,0,0,1,.32.54c-.06,1.43-.11,2.87-.17,4.3l.06,24.78L235,446l1,.32c1,2.2,2.1,2.19,3.15,0,3.43-.93,4.58-3.37,4.55-6.7-.08-6.92-.08-13.85-.11-20.77,0-1,0-1.92,0-2.89l0-4.9c0-1.77.05-3.55.07-5.33l.53-1.72,1.84.08.76,2.86c-.16,3.5-.32,7-.49,10.49-.17,2.09-.33,4.18-.5,6.27V435.3c.18,1.61.35,3.21.53,4.82l1.57,1.78,1.92,1.24,1.15,1.13,2.54,3.9.78,2.59,1.6,6.1ZM269,459.2l-6.91,5.23c2.21,1.35,4.3,3.51,6.65,3.83,2.89.4,6.5-.75,6.16-4.61C274.81,462.26,271.71,461.12,269,459.2Zm-38.8,7.87c.06-.56.11-1.13.16-1.69l-6.83-1.19-.3,1.77Z" transform="translate(0.04 -0.27)"/><path class="cls-2" d="M119.12,480.94c-5.68-1.88-2.14-6.62-3.1-10a.6.6,0,0,0,.44-.6L118,470l4.62,3.3.81-1.61L118,470l-1.81-2.2-1,.18.06-11,10.87-12.63.57-2,1.39-1.35c.13,1.18.27,2.36.41,3.54.28,1.56.56,3.12.83,4.68l2.49,4.58,5.39,0,3.14-3.64,5.13-2.49L147,449c1.61,3.88,3,7.86,4.94,11.6.56,1.11,2.61,2.38,3.68,2.15,2.6-.54,5-1.92,7.53-3l5.63,0,10.77,7.43.79,1.41q0,6.4-.08,12.8l-.86,1.46-2.38,3.27c-.46.6-.92,1.19-1.37,1.79l-1.86,1.47L173,490l-3,1.44-2.57.86-9.28,1.28-1.86-.53-2.61-.68-2.61-.41-2-.95-.93-.36-8.18-5.57-2.69-1.8-1.11-1.35-4.59-8.8-1.38.68q1.05,4.14,2.08,8.29l-.23,1.09-3-.22Zm45.34-15.45-1,1.15a6.15,6.15,0,0,0-2.46.21c-1.6.91-3.06,2.08-4.57,3.15a53.38,53.38,0,0,0,3.81,4,4.48,4.48,0,0,0,2.36.67c3.5.36,7.88.93,8.6-3.27C171.51,469.86,166.86,467.48,164.46,465.49Z" transform="translate(0.04 -0.27)"/><path class="cls-3" d="M53.9,9.86c-1.76,4-3.79,7.85-5.15,12-.48,1.45.69,3.44,1.11,5.18a16.59,16.59,0,0,0-.71,2.88c-.45,8.45-3.81,14.37-12.7,16.67C34.21,47.12,32,50,30.9,52.3c-2.35,5.11-3.54,10.75-6,15.77a12.71,12.71,0,0,1-6.58,5.78c-5.48,1.91-7.32,4.12-5,9.45a125,125,0,0,0,8,15.44C25,105,26.47,111.1,23.57,118.12c-.76,1.85-.55,4.31-.18,6.38,1.52,8.44,4.51,16.19,10.26,22.88,4,4.64,6.61,9.87,6.59,16.64,0,5.59,1.64,11.45,3.73,16.73,2.69,6.78,4,13.14.76,20.05-.58,1.21-.07,3.25.53,4.65,3.16,7.31,6.5,14.54,9.79,21.79l-6.25,1c-.81-2.85-1.46-5.75-2.44-8.54-2-5.7-4.22-11.32-6.27-17a3.84,3.84,0,0,1-.13-2.43c2.69-7.28-.3-13.46-3.07-20-1.6-3.79-1.88-8.43-1.67-12.64A26.52,26.52,0,0,0,28.3,148c-7.24-8.35-11.83-17.48-8.44-29.16,1.76-6.08-.72-11.65-3.9-17A136.46,136.46,0,0,1,6.3,83.46c-2.53-6.31.5-12.4,7-14.07,6.79-1.74,8.83-6.32,9.52-12.27C24,46.77,26.52,43.78,36.64,41c5.9-1.6,7.49-6.47,8.94-11.52s2.72-9.9,4.49-14.71C50.76,12.94,52.59,11.5,53.9,9.86Z" transform="translate(0.04 -0.27)"/><path class="cls-4" d="M108.34,290.13l2.73-.28.63,1.08c.08.35.17.71.25,1.06l-.24,13.1,1.29.9,2.93.37c0,.52.07,1,.11,1.55l-4.36.81c-.41.26-1.16.51-1.16.78-.11,5.87-.14,11.74-.19,17.61,0,1.26,0,2.53,0,3.8q.22,12.57.46,25.13c3.81.12,7.63.37,11.44.33,17.44-.19,34.88-.47,52.32-.72l11.5-.82,3.81.06,3.38-.05h1.54L200,355l.17.2c-.08.68-.15,1.35-.23,2l-.27.08c-12.94-.3-26-1.67-38.57,2.69a27.27,27.27,0,0,0-5.21-.92c-12,.24-23.93.53-35.89,1.05-1.7.07-4.71,1.45-4.76,2.35-.16,3-1.9,7,2.42,8.75,2.72,1.11,5.59,1.86,8.39,2.77L124,376c-3.5-1.34-7.19-2.35-10.4-4.2-1.24-.72-1.61-3.31-1.93-5.12a18.58,18.58,0,0,1-.07-4.18L61.69,339.11c-2.78-1.3-6.59-1.6-5.64-5.82-9-1.31-18.73,2.1-25.72-6.43-1-1.18-3.12-1.34-4.25-2.46-1.66-1.64-4.22-3.89-4-5.57.3-2.34,2.53-4.72,4.49-6.47,1.35-1.21,3.64-1.37,5.47-2,.56-6.36-1.53-10.71-7.54-14.17C17.24,292,10.63,286.53,4.23,281c-5.45-4.67-5.77-11.47-.42-16,6.22-5.31,13.35-9.56,20.09-14.27l.15,3.45c-3.74,2.4-7.58,4.66-11.21,7.22-12,8.47-12.14,13.59-.31,22,8.15,5.82,16.62,11.19,23.89,16.05-.18,3.77-.12,7.48-.66,11.1A5.58,5.58,0,0,1,32.88,314c-2,.94-4.55.73-6.34,1.86-2.5,1.59-2.4,3.66.43,5.36,3.51,2.11,6.9,4.43,10.34,6.66-1.41,1.58-1.14,3,.88,2.91,7.33-.31,15,3.09,22-1.71-.63,3.54.34,5.69,4.06,7.3,9.85,4.28,19.43,9.19,29.13,13.8,4.24,2,8.52,3.91,12.72,5.83.46-.77.77-1.05.78-1.33.06-14.63.14-29.25.05-43.88,0-.95-1.31-1.88-2-2.82l-.91-.84-.12-.07.24-1.82,2.16.3c.74-.76,1.47-1.53,2.21-2.3Z" transform="translate(0.04 -0.27)"/><path class="cls-4" d="M337,242q.5-2.77,1-5.55c2.48-1.64,4.9-3.37,7.45-4.88,7.38-4.38,8.75-8.73,3.41-18-3.47-6-9.5-6.18-12.77-.88a.86.86,0,0,0-.81,0l2.82-8.72c4.46,1.35,8.71,1.91,12.51-1.86,2.59-2.57,5.87-4.51,8.19-7.27,4-4.71,10.06-8,10.82-15L371,176c.35,1.34.71,2.67,1.06,4q-.48,2.61-1,5.22c-1.56,2.11-2.86,4.48-4.72,6.27-5.71,5.5-11.64,10.77-17.43,16.07a52.49,52.49,0,0,0,4.44,6.24c.68.72,2.88,1.14,3.5.62,7.92-6.57,15.8-13.23,23.45-20.11,4.78-4.3,5.38-9.8,2.87-15.53-3.69-8.44-6.55-17.39-13.68-23.87l2.52-1.4c5.33-.39,6.2-5.25,8.6-8.59l1.22-2.35,2-5.53c1.37-3.79,2.59-7.57-.69-11.06l-1.27-1.73-1.47-1.11-7.15-.51-2.46-1.7c.64-5.17-3.07-3.52-5.67-3.61l-.42-2.94-.18-8.23c.63-.39,1.26-.78,1.88-1.18L364,104,359,97.46,356,97.13l-5.85,3-1.35-1.5c2.59-3.79,6-5.51,10.68-4.56,6.16,1.24,7.32,6.46,7.74,11.08.74,8.3,5.23,12.5,12.67,14.62,5.19,1.48,7.4,5.39,7.69,10.44.48,8.38-2.61,15.69-8,21.79-3,3.35-3,5.92-.93,9.62a142.47,142.47,0,0,1,7.73,16c3.49,8.49,1.74,16-5.44,21.87Q371,207.55,361,215.35c-2.94,2.29-5.09,4.39-5.25,8.83-.12,3-2.77,6.63-5.29,8.81C346.43,236.5,341.56,239.05,337,242Z" transform="translate(0.04 -0.27)"/><path class="cls-5" d="M24.05,254.18l-.15-3.45c3.21-1.84,4-4.56,3.76-8.21-.35-5,1.89-8.48,7-9.91,4.75-1.33,9.43-2.91,14.13-4.39l6.25-1,8.76-.46c1.32.05,2.65.15,4,.14,8.09,0,11.31,3.34,12.56,11.35,1,6.16-3.34,8.87-6.43,12.54L58.73,263.68,52,267.62c-7,2.62-10.48,1.65-15.87-3.72-1.2-1.2-3.44-1.34-5.2-2l-.6-2.59,13.37-7c-.76-3.83-2.5-5.49-6.25-3.87C33,250.41,28.53,252.28,24.05,254.18ZM51.41,234l-.08-.3c-4.06.68-8.19,1.09-12.17,2.08-7.29,1.81-7.71,2.67-6.1,11.61l5.22-6.4c7,3.39,11.68,11.87,9.59,19.43-2.51-5.53-5.43-3.21-8.62-.9,2.6,3.82,6,6.42,10.19,4.31a65.88,65.88,0,0,0,25.39-23.33c2.88-4.43-.43-8.7-5.91-8.56l-16,1.34Z" transform="translate(0.04 -0.27)"/><path class="cls-6" d="M126.05,374c-2.8-.91-5.67-1.66-8.39-2.77-4.32-1.77-2.58-5.73-2.42-8.75.05-.9,3.06-2.28,4.76-2.35,12-.52,23.93-.81,35.89-1.05a27,27,0,0,1,5.2.92l1.74,6.11c0,.93,0,1.86,0,2.78l-.91.94-1.11,1-4.95,2.06-1,.91-4,1.07-1.74,1.3-.28-.28.22-.11-9.1-.72Z" transform="translate(0.04 -0.27)"/><path class="cls-7" d="M245.92,404.1l-1.84-.08v-4.74l-10.93.9c.12,1.84.22,3.28.32,4.72-.05,1.76-.09,3.52-.13,5.29L233,414l-2.76,1c.73-14.32,1.46-28.64,2.13-41.75L216.87,364c1.36-.18,2.59,3.82,4,.12,11.28,6.82,23.53,5.93,35.66,3.84,7.93-1.36,9.36-3.9,9.4-11.85l9-.26c-4.92,0-8.36,1-6.48,7.35.76,2.56-5.43,7.49-9.56,7.94-13.52,1.5-11.85,2-12,14,0,2,0,4,0,5.95l0,2.9q0,3.06,0,6.11Zm-1-31.09c-8-1.14-8.14-1.16-9.23,5.86-.66,4.25-.82,8.58-1.31,12.86-.37,3.22.13,5.92,4.09,5.76,3.33-.13,6.33-1.35,6.41-5.39C245,385.81,244.92,379.51,244.92,373Z" transform="translate(0.04 -0.27)"/><path class="cls-2" d="M275,355.8l-9,.26-14.9.79-1.08-.72-13.08.89h-1.83L228,357l-3.85-.22-.09-2.44,1.92-.12,9-.31,78.9-2.07c-1.17.69-2.31,1.91-3.51,2-5.41.29-10.84.16-16.25.4-1.44.06-2.84.92-4.25,1.41Z" transform="translate(0.04 -0.27)"/><path class="cls-8" d="M128.08,441l-1.39,1.35a11,11,0,0,1-.67-2.78q1.11-26.23,2.33-52.45l1.53,6.07v10.64h9.66l.49.34c-.27.95-.53,1.91-.8,2.86l-10.11-1.7c.36,2.16.57,3.39.78,4.63-.3,1.93-.61,3.86-.91,5.8l-.15,3.19-.47,4.81Q128.22,432.35,128.08,441Z" transform="translate(0.04 -0.27)"/><path class="cls-8" d="M289.88,355.61c1.41-.49,2.81-1.35,4.25-1.41,5.41-.24,10.84-.11,16.25-.4,1.2-.06,2.34-1.28,3.51-2l0,.05a4.25,4.25,0,0,0,.87.13l1.79.07-.66-8.89q-.8-7.45-1.58-14.91-.07-3.16-.16-6.33l.87-5.94h1.88c.08,6.94.09,13.88.26,20.82.11,4.09.45,8.18.71,12.26s-.85,6.44-5.75,6.26C304.74,355.09,297.3,355.49,289.88,355.61Z" transform="translate(0.04 -0.27)"/><path class="cls-2" d="M316.93,316h-1.88a1.19,1.19,0,0,0-.63-.21q-.71-5.43-1.42-10.85l-1-2a1,1,0,0,0,.06-.84c.74-1.21,2-2.39,2.11-3.65.25-3.81,0-7.65,0-11.48H318l.66,2.93q-.18,6.42-.38,12.85l-1.17,9.33C317,313.42,317,314.72,316.93,316Z" transform="translate(0.04 -0.27)"/><path class="cls-7" d="M155.9,372.93l4.95-2.06,1.11-1,.91-.93a10.31,10.31,0,0,0,2-.81c-.31-1.69-.82-3.33-1.59-6.12l-.43,4.14L161.09,360c12.62-4.36,25.64-3,38.58-2.69-10,.56-20.07,1.18-30.12,1.64-5.81.26-6.12.55-4.34,5.93,1.87,5.66,1.6,6-7.22,9.08Z" transform="translate(0.04 -0.27)"/><path class="cls-5" d="M139.23,407c.27-.95.53-1.91.8-2.86l1.18-.18q.24,12.49.47,25l-.09,11L140,440q-.72-8.07-1.43-16.16v-3.74c0-1.35-.05-2.69-.07-4l.09-5.15C138.82,409.6,139,408.29,139.23,407Z" transform="translate(0.04 -0.27)"/><path class="cls-4" d="M221.42,472c5.31,2.79,10.74,5,17.4,3.6-1-2.62-1.93-5.1-2.86-7.58l1-.53L244,478.71c-5.69-.89-11.45-1.51-17-2.82C224.94,475.41,223.27,473.31,221.42,472Z" transform="translate(0.04 -0.27)"/><path class="cls-8" d="M141.68,428.94q-.23-12.49-.47-25l1.86-10Q142.37,411.44,141.68,428.94Z" transform="translate(0.04 -0.27)"/><path class="cls-4" d="M224.06,354.34l.09,2.43-1.19.3-4.68,2.12c.88,1.63,1.76,3.25,2.63,4.88-1.45,3.7-2.68-.3-4-.12-.24-1.92-.48-3.84-.77-6.08L211,357.1c.05-.81.11-1.63.16-2.44Z" transform="translate(0.04 -0.27)"/><path class="cls-9" d="M143.07,394l-1.86,10-1.18.18-.49-.34q1-12.87,2-25.74l1.46,0,.15,9.44C143.14,389.62,143.1,391.78,143.07,394Z" transform="translate(0.04 -0.27)"/><path class="cls-8" d="M163.18,459.74c-2.5,1-4.93,2.42-7.53,3-1.07.23-3.12-1-3.68-2.15-1.9-3.74-3.33-7.72-4.94-11.6,1.68,2.53,4.3,4.87,4.84,7.62,1,4.83,2.88,5.75,7.09,3.86A16.48,16.48,0,0,1,163.18,459.74Z" transform="translate(0.04 -0.27)"/><path class="cls-3" d="M168,.74c-.64.69-1.14,1.68-1.92,2-4.92,2.13-9.87,4.21-14.89,6.07-1.54.57-3.34.43-5,.61Z" transform="translate(0.04 -0.27)"/><path class="cls-3" d="M317,6.89c-1,.7-2,2-3.07,2-6.79.27-13-1.48-17.95-6.41,2.09.92,4.22,1.76,6.26,2.76C307,7.58,311.94,7.7,317,6.89Z" transform="translate(0.04 -0.27)"/><path class="cls-3" d="M343.84,10c-5.9-4.43-12.67-5.36-19.78-4.86C332.54,1.84,339.85,3.63,343.84,10Z" transform="translate(0.04 -0.27)"/><path class="cls-3" d="M199.82,9.44c-.78.17-1.75.72-2.31.44-5.88-2.93-11.69-6-17.52-9Z" transform="translate(0.04 -0.27)"/><path class="cls-10" d="M348.76,98.59l1.35,1.5-7,7.24c-2.88.06-3.26-1.63-2.75-3.94l.32-.17C345.27,104.94,345.84,99.73,348.76,98.59Z" transform="translate(0.04 -0.27)"/><path class="cls-3" d="M340.9,43c-.26-1.58-1.08-3.31-.68-4.69,1.46-5.16,3.32-10.2,5-15.28-.77,3.81-1.5,7.63-2.32,11.44C342.33,37.29,341.58,40.12,340.9,43Z" transform="translate(0.04 -0.27)"/><path class="cls-3" d="M229,2.31l-16.9,7C217.65,6.72,222.18,1.74,229,2.31Z" transform="translate(0.04 -0.27)"/><path class="cls-3" d="M340.71,103.22l-.32.17q0-8.7,0-17.39Q340.56,94.61,340.71,103.22Z" transform="translate(0.04 -0.27)"/><path class="cls-8" d="M126.12,444.33,115.25,457C116.67,450.85,120.4,446.74,126.12,444.33Z" transform="translate(0.04 -0.27)"/><path class="cls-9" d="M126.05,374l14,1.1c0,.74,0,1.49,0,2.23l-7-.22-3.13-.11H128L124,376Z" transform="translate(0.04 -0.27)"/><path class="cls-4" d="M248.82,482.09l16.2,4C259,487.15,253.53,486.21,248.82,482.09Z" transform="translate(0.04 -0.27)"/><path class="cls-3" d="M252.84,9.43,238,2.33Z" transform="translate(0.04 -0.27)"/><path class="cls-8" d="M140,440l1.57-.09,3.88,7.7-5.13,2.49C140.24,446.72,140.13,443.36,140,440Z" transform="translate(0.04 -0.27)"/><path class="cls-2" d="M129.92,377l3.13.11a5.34,5.34,0,0,0-.91,1.59c-.8,4.81-1.52,9.63-2.26,14.45l-1.53-6.07.14-1.93Q129.2,381.09,129.92,377Z" transform="translate(0.04 -0.27)"/><path class="cls-8" d="M179.58,467.15l-10.77-7.43A12.93,12.93,0,0,1,179.58,467.15Z" transform="translate(0.04 -0.27)"/><path class="cls-8" d="M180.29,481.36q0-6.41.08-12.8C183.62,472.85,182.51,477.11,180.29,481.36Z" transform="translate(0.04 -0.27)"/><path class="cls-3" d="M115,5.3l-11.28,5.6C106.88,7.81,110.17,5,115,5.3Z" transform="translate(0.04 -0.27)"/><path class="cls-3" d="M134.86,9.36,124,5.27Z" transform="translate(0.04 -0.27)"/><path class="cls-7" d="M140.05,377.33c0-.74,0-1.49,0-2.23l9.1.72c-.22.34-.44.66-.66,1L147,377l-2.32.86L143,378l-1.46,0Z" transform="translate(0.04 -0.27)"/><path class="cls-8" d="M119.12,480.94l9.87,2Z" transform="translate(0.04 -0.27)"/><path class="cls-8" d="M317.09,312.13l1.17-9.33Z" transform="translate(0.04 -0.27)"/><path class="cls-8" d="M143,378l1.67-.11q-.75,4.77-1.52,9.55Z" transform="translate(0.04 -0.27)"/><path class="cls-7" d="M139.91,485.06l8.18,5.57Z" transform="translate(0.04 -0.27)"/><path class="cls-3" d="M342.31,53q-.71-4-1.39-8Q341.61,49,342.31,53Z" transform="translate(0.04 -0.27)"/><path class="cls-8" d="M158.07,493.56l9.28-1.28Z" transform="translate(0.04 -0.27)"/><path class="cls-8" d="M129.92,377q-.72,4.08-1.43,8.15c-.17-2.72-.34-5.43-.52-8.15Z" transform="translate(0.04 -0.27)"/><path class="cls-3" d="M283,.75l-5.95,1.4Z" transform="translate(0.04 -0.27)"/><path class="cls-8" d="M260.18,453.75l-4.4,3.11-1.6-6.1,2.44,3.68Z" transform="translate(0.04 -0.27)"/><path class="cls-3" d="M342.23,82.67q1.57-3.84,3.13-7.68Q343.8,78.83,342.23,82.67Z" transform="translate(0.04 -0.27)"/><path class="cls-8" d="M245.92,404.1l.87-4c0,2.3-.07,4.6-.11,6.9Z" transform="translate(0.04 -0.27)"/><path class="cls-3" d="M345.33,67l-1.47-7Z" transform="translate(0.04 -0.27)"/><path class="cls-7" d="M222.79,446.66q-1.38,3.16-2.74,6.33Q221.42,449.83,222.79,446.66Z" transform="translate(0.04 -0.27)"/><path class="cls-3" d="M294,2.14,288,.75Z" transform="translate(0.04 -0.27)"/><path class="cls-3" d="M90.83,12.42,85,11.37Z" transform="translate(0.04 -0.27)"/><path class="cls-4" d="M269,486.11l5.93-1.45Z" transform="translate(0.04 -0.27)"/><path class="cls-3" d="M261,9.78l-6,0Z" transform="translate(0.04 -0.27)"/><path class="cls-8" d="M280.83,455.1l-5.82-3Z" transform="translate(0.04 -0.27)"/><path class="cls-3" d="M82,11.12,77,9.79Z" transform="translate(0.04 -0.27)"/><path class="cls-3" d="M209,9.77l-5,0Z" transform="translate(0.04 -0.27)"/><path class="cls-2" d="M211.19,354.66c-.05.81-.11,1.63-.16,2.44-2.32-.3-5.46,2.21-6.66-1.94l1.66-.47Z" transform="translate(0.04 -0.27)"/><path class="cls-3" d="M275,2.42l-4.4,3.44Z" transform="translate(0.04 -0.27)"/><path class="cls-3" d="M268,7.39l-4.83,2Z" transform="translate(0.04 -0.27)"/><path class="cls-8" d="M132,483.17c.07-.36.15-.73.23-1.09l3.89-.17,1.11,1.35Z" transform="translate(0.04 -0.27)"/><path class="cls-8" d="M267,452.09l-4.92,1.3Z" transform="translate(0.04 -0.27)"/><path class="cls-7" d="M229.09,440.4l-3.73,2.74Z" transform="translate(0.04 -0.27)"/><path class="cls-7" d="M246.22,440.12c-.18-1.61-.35-3.21-.53-4.82C245.87,436.91,246,438.51,246.22,440.12Z" transform="translate(0.04 -0.27)"/><path class="cls-3" d="M122,5.15h0Z" transform="translate(0.04 -0.27)"/><path class="cls-3" d="M74.84,9.41,71,8.37Z" transform="translate(0.04 -0.27)"/><path class="cls-7" d="M245.69,423.72c.17-2.09.33-4.18.5-6.27Q246,420.59,245.69,423.72Z" transform="translate(0.04 -0.27)"/><path class="cls-2" d="M199.94,357.23c.08-.68.15-1.35.23-2l4.34-.1C204.65,359.37,201.64,356.88,199.94,357.23Z" transform="translate(0.04 -0.27)"/><path class="cls-3" d="M235,2.14h0Z" transform="translate(0.04 -0.27)"/><path class="cls-8" d="M253.4,448.17q-1.26-1.95-2.54-3.9Q252.14,446.22,253.4,448.17Z" transform="translate(0.04 -0.27)"/><path class="cls-4" d="M244.81,479.1c1.08.86,2.16,1.72,3.23,2.59C247,480.82,245.89,480,244.81,479.1Z" transform="translate(0.04 -0.27)"/><path class="cls-8" d="M177.05,486.09l2.38-3.27Z" transform="translate(0.04 -0.27)"/><path class="cls-3" d="M142,9.78l-3,0Z" transform="translate(0.04 -0.27)"/><path class="cls-8" d="M285.26,465.18l-1.17-3.31Z" transform="translate(0.04 -0.27)"/><path class="cls-3" d="M343.44,58c-.28-.95-.55-1.9-.82-2.86C342.89,56.11,343.16,57.06,343.44,58Z" transform="translate(0.04 -0.27)"/><path class="cls-8" d="M149.19,376.21l1.74-1.3,2.85.56Z" transform="translate(0.04 -0.27)"/><path class="cls-8" d="M284.08,474.11c.38-1.1.75-2.2,1.13-3.31C284.83,471.91,284.46,473,284.08,474.11Z" transform="translate(0.04 -0.27)"/><path class="cls-8" d="M246.83,394l0-2.9C246.84,392,246.83,393,246.83,394Z" transform="translate(0.04 -0.27)"/><path class="cls-8" d="M318.64,290,318,287l1.2,0Z" transform="translate(0.04 -0.27)"/><path class="cls-3" d="M57,8.25,53.86,9.9Z" transform="translate(0.04 -0.27)"/><path class="cls-8" d="M115.19,468l1-.18c.09.85.19,1.7.29,2.56a.6.6,0,0,1-.44.6Z" transform="translate(0.04 -0.27)"/><path class="cls-4" d="M155.9,372.93l2.09,1-3,1.12c0-.41-.05-.83-.08-1.24Z" transform="translate(0.04 -0.27)"/><path class="cls-4" d="M204.51,355.1l-4.34.1L200,355l.09-.41,4.88-.12a.87.87,0,0,1-.59.63Z" transform="translate(0.04 -0.27)"/><path class="cls-8" d="M169.92,491.42l3-1.44Z" transform="translate(0.04 -0.27)"/><path class="cls-8" d="M282.39,457.17l-1.49-2Z" transform="translate(0.04 -0.27)"/><path class="cls-3" d="M345.32,13c-.4-.77-.8-1.55-1.21-2.32C344.52,11.46,344.92,12.24,345.32,13Z" transform="translate(0.04 -0.27)"/><path class="cls-8" d="M273.15,451.89l-2.34,0Z" transform="translate(0.04 -0.27)"/><path class="cls-7" d="M154.91,373.84l.08,1.24-1.21.39-2.85-.56Z" transform="translate(0.04 -0.27)"/><path class="cls-3" d="M177.9.27h0Z" transform="translate(0.04 -0.27)"/><path class="cls-8" d="M282.15,478.21l1.44-2.35Z" transform="translate(0.04 -0.27)"/><path class="cls-8" d="M249.71,443.14l-1.92-1.24Z" transform="translate(0.04 -0.27)"/><path class="cls-8" d="M173.82,489.35l1.86-1.47Z" transform="translate(0.04 -0.27)"/><path class="cls-8" d="M149,491l2,.95Z" transform="translate(0.04 -0.27)"/><path class="cls-8" d="M153.6,492.35l2.61.68Z" transform="translate(0.04 -0.27)"/><path class="cls-8" d="M147,377l1.45-.24Z" transform="translate(0.04 -0.27)"/><path class="cls-9" d="M204.38,355.1a.87.87,0,0,0,.59-.63l1.06.22-1.66.47Z" transform="translate(0.04 -0.27)"/><path class="cls-3" d="M101,12.09l-.92.24Z" transform="translate(0.04 -0.27)"/><path class="cls-11" d="M317.79,281.22c-8.46-1.4-14.76-2.72-21.13-3.4-3.17-.33-7.11-.52-9.55,1-6,3.8-11.23,1.6-16.53-.67-8.21-3.5-16.56-2.42-24.84-1-7.92,1.35-15.47,5.25-23.79,3.87A146,146,0,0,1,205,277.38c-9.95-2.89-19.23-1.19-28.55,2.65-8.63,3.55-17.5,6.19-26.66,1.39-8-4.19-15.66-3.52-23.74.42-4.31,2.1-9.5,2.74-14.37,3.22s-7.14-1.72-6.74-6.82a31.54,31.54,0,0,1,2.62-11.07c2.58-5.4.76-9.64-2.11-13.92-1.58-2.35-3-4.91-5-6.82-6.55-6.22-5.26-18.28-.71-24.56,9.66-13.35,7.23-17.55-2.56-29.77-3.73-4.65-5.65-9.65-4.33-15.6.86-3.89,1.33-7.95,2.83-11.59,2.64-6.42,1.34-12.27-3.21-16.56-10.42-9.85-8.89-21.09-5.75-33.16C89.9,103,88.3,94.7,78.15,88.91c-8.77-5-10.43-14-7.78-22.3,3.92-12.21,2-21.71-6.85-30.82-3.3-3.38-4.84-8.61-6.7-13.2-2.27-5.62,1.37-9.85,7.33-8.87,7,1.14,14,2.81,21.07,3.4,8.26.68,16.61.55,24-4.35,6.37-4.23,12.8-4.68,19.7-.9,8.37,4.57,17,3.64,25.42-.08,3.62-1.6,7.14-3.43,10.79-5,8.54-3.64,16.53-.76,23.8,3.26,10,5.52,19.58,4.91,29.64.72a88.55,88.55,0,0,1,14.18-4.41c1.71-.4,3.86.59,5.68,1.29,3.55,1.39,7,3.13,10.5,4.53,6.42,2.53,12.91,3.32,19.19-.34,10.17-5.94,20.35-6.46,31.51-2.2,7.58,2.9,15.71,5,24.08.58A12.54,12.54,0,0,1,338.19,12c3.83,3.46,2.9,8.14,1.53,12.61-.68,2.22-.9,4.6-1.78,6.73-3.13,7.58-2.19,15.13.67,22.33,4.51,11.35,2.59,22-1.75,32.83a26.28,26.28,0,0,0,.85,22.44c4.5,9.27,3.79,19.09-1.28,28.22-4.49,8.1-5.73,16.4-3.16,25.36,4.06,14.11,6.51,28-.83,42.18a30.62,30.62,0,0,0-1,25.68,22.84,22.84,0,0,1-.86,18.87c-4,8.19-6.93,16.46-7.27,25.59C323.15,279.82,320,281.29,317.79,281.22ZM228,168.49l2.07-.41-2.12-1-4-1.77-.56,1.41Zm-49,31.65-6.93,3.06,1.06,2,5.86-3.4,5.82-.95c9.69-1.45,9.69-1.45,10.89,5.77-.42,2.8-.83,5.6-1.25,8.4l-.42,7.07.92,2.77c1.46.73,2.91,2,4.41,2.08,4.22.18,8.47-.14,12.72-.27l4,.07,3.92-.25,2.08-1.39c.22-6,.41-11.9.68-17.86.08-1.93-.35-4.9,3-2.06L225.9,219c-.3,2.33-.74,4.73,2.6,5.25l11.78-.13,8.77-.18,4.36-1.75c-.07-2.38-.13-4.77-.19-7.15-.16-.65-.31-1.29-.47-1.93-.19-1.69-.37-3.38-.56-5.07l1.08-7.86c3.06-.59,1.83-2.08,1-3.84-1.4-3-2.47-6.2-3.68-9.31-.27-.65-.55-1.31-.83-2,0-2.06,0-4.11-.07-6.17,1.84-4.65,4.72-6.53,10.22-6.46a61.15,61.15,0,0,0,34.46-9.72c8.15-5.23,11.71-12.36,8.84-20.51-1.51-4.27-.29-7.45,2-10.52,4.42-5.8,4.06-8.09-2.29-11.66-.28-6.3-.63-12.6-.77-18.9a24.52,24.52,0,0,1,.87-4.94l2.54-2.28.21-5.87c-.28-1.2-.2-2.74-.93-3.54-4.59-5.06-9-10.45-14.16-14.83-15-12.64-31.9-17.74-51.24-10.93-3.93,1.38-8.1,2.11-12,3.61-2.73,1.06-5.15,2.92-7.71,4.43l0,0c-.5.74-1,1.49-1.51,2.23q.79,4.47,1.57,9l-2.74,2.73-3.9-3.85c-13.28-18.53-52.17-19.64-66.39-7-6.49,4.13-12,9-13.52,17.09l-3.27,5.39c-1.29.73-2.58,1.45-3.86,2.19-6.24,3.62-6.71,8.18-1.78,13.61,1.33,1.46,1.72,3.77,2.54,5.69.35,2.12.69,4.23,1,6.35a30.26,30.26,0,0,0-.56,5.07c.21,3.62,1,7.23,1,10.85,0,2.32-1,4.64-1.48,7,.38.64.76,1.29,1.13,1.94l.89,1.16L134,149a8.39,8.39,0,0,1,2.14,1.14c15.44,15.92,33.91,19.62,54.8,13.69l11.5-4.51L213,151.88l4.94-5,3.13-.39,2.59,1.38,1.32,2.29,3.07,0,.18.22.27-.06,14.44.43c7.17-.25,13.92-1.45,20.31-5.36a132.27,132.27,0,0,1,21.71-10.8c6.21-2.36,10.11-.2,13.41,5.28s3.12,12.29-1.43,16A76.58,76.58,0,0,1,281.75,165c-8.77,4.22-18.43,3.46-27.84,3.94l-11.83,0-11.67-1.19-.22,2.08,18.89,3.37c-.51,1.95-.87,3.37-1.24,4.78l-.08.41-.92,2.7v6.87l1.38,10.1-36.08,1.74-4.08-1-5.17-.58-2.06-.27-9.69-.14-3,.47-3,.45Zm106.87,37.2a40.74,40.74,0,0,0,6.53,20.88c3.06,4.58,7.29,7.83,12.69,7.48a16.66,16.66,0,0,0,14.25-9.59c6.15-12.53,3.2-24.59-3.07-36-3.48-6.31-9.49-8.66-15-7.38C291.19,215.15,285.79,222.78,285.89,237.34ZM122.27,49.06a87.79,87.79,0,0,0-1.61-9.31C119,33.89,115.93,29,109.27,28s-13.1,1-16.78,6.52c-6.5,9.76-9.36,20.64-3.42,31.8,5.53,10.39,16.54,14.17,26,4.93C121.21,65.3,120.69,56.79,122.27,49.06Zm9.13,215.07c12,0,16.79-4.67,16.42-16.51a40,40,0,0,0-2-9.65c-2.47-8.45-10.67-15-18.44-15-5.8,0-15,8.08-17.17,15C106.7,249.37,118.63,264.12,131.4,264.13ZM184.46,232l-1,1.05c3.29,3.57,6.43,7.29,9.9,10.68,9.23,9,17.08,9.55,27.4,2.08,7-5.07,11.78-5.17,19.14-.73a22.23,22.23,0,0,0,6,2.26c6.12,1.54,11.86-4.54,10.3-11a4.19,4.19,0,0,0-1.26.68c-5.49,6.21-6.28,6.2-14,3.35-6.89-2.55-13.72-2.92-20.48,1.29-10.42,6.49-18.89,3.83-27.92-2.84C189.7,236.74,187.14,234.27,184.46,232ZM166.6,219.2c-1.37-2.09-2.52-5.73-4.78-6.66-1.86-.77-5.09,1.59-7.62,2.77a3.73,3.73,0,0,0-2,2.13c-.64,3.61-1.7,7.39-1.12,10.85.25,1.55,4.59,4,6.08,3.43,2.89-1.11,5.32-3.85,7.47-6.32C165.7,224.17,165.75,222.05,166.6,219.2ZM321.89,37.44c0-6.08-2.88-10.45-6.84-10.45-3.47,0-7,5-7,10,0,4.31,4.12,8.9,7.9,8.81C319.34,45.74,321.9,42.12,321.89,37.44ZM144,54c5.79.21,9.73-4.5,9.92-9.6.13-3.47-1.36-5.26-4.93-5.34s-8.82,5.27-8.47,9.76C140.66,51,143.16,52.89,144,54ZM280,247.34c0-4.24-2.06-7.16-5.06-7.17-3.3,0-6,3.17-6,7s3.43,7.85,6.93,7.39C280.19,254,279.94,250.5,280,247.34Z" transform="translate(0.04 -0.27)"/><path class="cls-12" d="M58.73,263.68,73.9,250.81c3.36-1.53,7.6-2.25,9.91-4.75,6-6.52,5.45-21.14-.27-27.9-3.94-4.65-11.59-4.55-15.16.43a80.63,80.63,0,0,0-4.58,8.19l-8.76.46c-3.28-7.25-6.62-14.48-9.78-21.79-.6-1.4-1.11-3.44-.53-4.65,3.27-6.91,1.93-13.27-.76-20.05-2.09-5.28-3.75-11.14-3.73-16.73,0-6.77-2.59-12-6.59-16.64-5.75-6.69-8.74-14.44-10.26-22.88-.37-2.07-.58-4.53.18-6.38,2.9-7,1.38-13.17-2.37-19.38A125,125,0,0,1,13.25,83.3c-2.28-5.33-.44-7.54,5-9.45a12.71,12.71,0,0,0,6.58-5.78c2.49-5,3.68-10.66,6-15.77C32,50,34.21,47.12,36.45,46.54c8.89-2.3,12.25-8.22,12.7-16.67A16.59,16.59,0,0,1,49.86,27l1.76-4.72c3.73,7.42,7,15.09,11.32,22.14,3.81,6.23,3.35,12.57,2.82,19.21-.39,4.94-1.64,10.26-.33,14.78A29.14,29.14,0,0,0,73.86,92c9.21,7.78,9.3,17.45,6.33,27.13-3.46,11.26-2.68,20.78,5.72,29.4a34.83,34.83,0,0,1,5.15,7.3,5.18,5.18,0,0,1,.31,4.09c-5.52,12-3.47,23.85.69,35.66a3.06,3.06,0,0,0,.64,1.33c7.82,6.76,6.44,13.89,2,22.14-5.8,10.76-5.54,21.92,2.64,31.58,6.27,7.42,4.71,15.41,3.46,23.61-.37,2.42-.88,4.82-1.32,7.23L88,279.39c-3-1-5.87-2.82-8.83-2.88a46.73,46.73,0,0,0-12.54,1.83c-6.49,1.7-8.89.22-8.75-6.31C58,269.24,58.45,266.46,58.73,263.68ZM50.82,91.89c-1.12-3.65-2-8.79-4.26-13.23-2.72-5.36-7.91-7.49-13.93-6.39A11.37,11.37,0,0,0,23.3,81c-2.1,9,3.05,23.48,12.08,27.38,5.78,2.49,11.2,1.23,13.39-4.73C49.94,100.49,50,96.9,50.82,91.89ZM74,170.27c.06-6.83-3.41-14.05-7.92-17.51-5.33-4.08-10.16-3.32-14,2.2-4.16,6.06-3.85,18.19.62,24.53a10.94,10.94,0,0,0,14.54,2.95C72.23,179.41,73.14,174.37,74,170.27Zm-2-45.13c-.16-5-2.61-9-5.54-8.87-3.26.1-7.65,6-7.26,10.13.32,3.53,1.6,6.56,6,6.53C68.79,132.91,72.1,129.11,72,125.14ZM57,205.47c.82.55,2.17,2.21,3.53,2.22,4,0,5.66-3.16,6-6.5.12-1.17-2.33-3.77-3.34-3.64C59.69,198,57.33,200.27,57,205.47Z" transform="translate(0.04 -0.27)"/><path class="cls-13" d="M369.53,154.9c7.13,6.48,10,15.43,13.68,23.87,2.51,5.73,1.91,11.23-2.87,15.53-7.65,6.88-15.53,13.54-23.45,20.11-.62.52-2.82.1-3.5-.62a52.49,52.49,0,0,1-4.44-6.24c5.79-5.3,11.72-10.57,17.43-16.07,1.86-1.79,3.16-4.16,4.72-6.27q.5-2.61,1-5.22c-.35-1.34-.71-2.67-1.06-4-2-4.65-3.91-9.37-6.12-13.93-2.59-5.35-4.28-12.2-12.9-9.33-.13.05-.31-.11-.47-.13-6.42-.73-8.34-6.36-11.56-10.58L345,128.45c4,1.43,8,2.72,11.8,4.46.6.27.71,2.65.33,3.83s-1.65,2.28-2.49,3.36c2.86,1.62,5.65,2.66,7.74,4.51,4.52,4,8.25,3.51,12.1-2.74l-6.37,3c-3.86-6-1.6-15.32,5.19-22.26l7.15.51,1.47,1.11L383.2,126l.69,11.06c-.67,1.85-1.35,3.69-2,5.54l-1.22,2.34c-2.4,3.34-3.27,8.2-8.6,8.59Z" transform="translate(0.04 -0.27)"/><path class="cls-14" d="M115.93,306.36,113,306l-1.29-.9L112,292l4.12-1.65c5.52-1.82,11-4.09,16.6-5.3,3.51-.75,8.12-1.17,10.93.48,8.46,5,16.84,5.45,25.8,2.37a20.2,20.2,0,0,1,2.93-.55l20.59,15,0,2.33L191,305h-2l-41,0c-8.06-1.28-16.11-2.37-24,.95l-3.09.54-2.86-.18Z" transform="translate(0.04 -0.27)"/><path class="cls-14" d="M314.19,287c0,3.83.23,7.67,0,11.48-.09,1.26-1.37,2.44-2.11,3.65l-6.13.48H285.06c-1.69-2.38-3.4-2.36-5.13,0h-4.86c-3.21-2.3-12-2.29-15.14,0l-16.9.57-.12-2.43c4.93-3.59,9.82-7.26,14.83-10.75,2.41-1.68,5-3,7.57-4.55l2.77-1.27v-.31l1.87.35,2,.82,3.91.67,3.22,0L296,284h5Z" transform="translate(0.04 -0.27)"/><path class="cls-15" d="M106.27,305.53l-2.16-.3L75.17,292.49l-13.23-5.4-2.19-3.33c2.81-.06,6,.76,8.35-.35,6.61-3.17,13.14-2.81,19.88-1.18l.24.13.21-.17L94,284.94l1.43.25L98,286.77l4.45,1.41,2.56,1.44,3.33.51q.07,6.56.14,13.11Z" transform="translate(0.04 -0.27)"/><path class="cls-13" d="M343.14,107.33l7-7.24,5.85-3,3.08.33L364,104l.6,2.17.18,8.23-1.17,1.08q-2.91,5.22-5.8,10.46c-.07.5-.14,1-.22,1.5l-1.6.75c-.3-2.74-.39-5.52-1-8.21-.39-1.87.8-5-3-4.86l-4.2,1.9-1.53.94Z" transform="translate(0.04 -0.27)"/><path class="cls-16" d="M175.8,286c9.71-3.84,19.55-6.78,30.1-3.86a22.52,22.52,0,0,1,4.23,2.22l-5.37,6.75c-2.18,2-4.11,4.42-6.61,5.84-1.77,1-4.93,1.62-6.39.71C186.2,294.1,181.08,289.89,175.8,286Z" transform="translate(0.04 -0.27)"/><path class="cls-16" d="M228.61,287.05c7-2.05,13.88-4.61,21-6,4.72-.9,9.77-.08,14.67,0-5.24,4-10.32,8.29-15.77,12-8.05,5.48-8.16,5.31-15.59-.43Z" transform="translate(0.04 -0.27)"/><path class="cls-16" d="M336.1,212.73c3.27-5.3,9.3-5.12,12.77.88,5.34,9.23,4,13.58-3.41,18-2.55,1.51-5,3.24-7.45,4.88q-1.14-5.69-2.29-11.38c1.8-2,4.17-3.84,5.28-6.22C343.31,213.87,341.57,212,336.1,212.73Z" transform="translate(0.04 -0.27)"/><path class="cls-3" d="M88,282.23c-6.74-1.63-13.27-2-19.88,1.18-2.31,1.11-5.54.29-8.35.36L56.56,282c-5-3.71-5.11-9-4.52-14.42l6.69-3.94c-.28,2.78-.76,5.56-.82,8.35-.14,6.53,2.26,8,8.75,6.31a46.73,46.73,0,0,1,12.54-1.83c3,.06,5.88,1.85,8.83,2.88C88,280.34,88,281.28,88,282.23Z" transform="translate(0.04 -0.27)"/><path class="cls-17" d="M352,115.09c3.82-.16,2.63,3,3,4.86.57,2.69.66,5.47,1,8.21l1.11,1.33c.17-.69.33-1.39.49-2.08.08-.5.15-1,.22-1.5l1.59.15,2.31,14.29c2.17-7.09,3.13-14.4,9.16-19.43l2.46,1.7c-6.79,6.94-9.05,16.28-5.19,22.26l6.37-3c-3.85,6.25-7.58,6.71-12.1,2.74-2.09-1.85-4.88-2.89-7.74-4.51.84-1.08,2.09-2.09,2.49-3.36s.27-3.56-.33-3.83c-3.82-1.74-7.84-3-11.8-4.46.43-1.07.86-2.14,1.3-3.21l6.77,2.11c-.42-3.23-.8-6.13-1.17-9C351.94,117.24,352,116.17,352,115.09Z" transform="translate(0.04 -0.27)"/><path class="cls-9" d="M369.63,179.88c-2.88-6.14-5.66-12.32-8.68-18.39-1.59-3.21-3.65-5.4-8-5.37-5.12,0-9.62-2.23-12-7.39a18.49,18.49,0,0,0-2.8-3.45L340,142c3.22,4.22,5.14,9.85,11.56,10.58.16,0,.34.18.47.13,8.62-2.87,10.31,4,12.9,9.33,2.21,4.56,4.09,9.28,6.12,13.93Z" transform="translate(0.04 -0.27)"/><path class="cls-7" d="M232.92,292.63c7.42,5.74,7.53,5.91,15.58.43,5.45-3.72,10.53-8,15.77-12l3.8,2.84v.31l-2.77,1.27c-2.53,1.51-5.16,2.87-7.57,4.55-5,3.49-9.9,7.16-14.83,10.75-2.33,1.68-4.44,1.48-6.4-.65-2.18-2.38-4.42-4.71-6.63-7.06Z" transform="translate(0.04 -0.27)"/><path class="cls-7" d="M175.8,286c5.28,3.94,10.4,8.15,16,11.66,1.46.91,4.62.29,6.39-.71,2.5-1.42,4.43-3.84,6.61-5.84l.3,2.16c-.95,1.51-1.64,3.32-2.92,4.46-2.61,2.34-4.31,6.8-9.22,4.68l-20.59-15Z" transform="translate(0.04 -0.27)"/><path class="cls-18" d="M212.08,286.25l12.13.9-3.27,9.91-5.64-.29C212.21,293.88,211.65,290.22,212.08,286.25Z" transform="translate(0.04 -0.27)"/><path class="cls-15" d="M336.1,212.73c5.47-.78,7.21,1.14,4.9,6.12-1.11,2.38-3.48,4.17-5.28,6.22q-.23-6.18-.43-12.36A.86.86,0,0,1,336.1,212.73Z" transform="translate(0.04 -0.27)"/><path class="cls-4" d="M212.08,286.25c-.43,4,.13,7.63,3.22,10.52L211.42,298c-1-2.3-1.95-4.59-3.07-7.23l-3.29,2.47-.3-2.16,5.37-6.75Z" transform="translate(0.04 -0.27)"/><path class="cls-4" d="M220.94,297.07l3.27-9.92,4.4-.1,4.3,5.58-3,.43c-1.41-1.15-2.92-4.25-3.84.4a39.84,39.84,0,0,1-1.9,5.47c0,2.38-.11,4.76-.16,7.14l-3.09-6.9C220.9,298.47,220.92,297.77,220.94,297.07Z" transform="translate(0.04 -0.27)"/><path class="cls-19" d="M351.91,118.32c.37,2.9.75,5.8,1.17,9l-6.77-2.11q0-3.64-.05-7.31l1.53-.94Z" transform="translate(0.04 -0.27)"/><path class="cls-19" d="M301,284h0Z" transform="translate(0.04 -0.27)"/><path class="cls-3" d="M94,284.94l-5.57-2.75Z" transform="translate(0.04 -0.27)"/><path class="cls-19" d="M116.07,290.34,112,292c-.08-.35-.17-.71-.25-1.06L113,290Z" transform="translate(0.04 -0.27)"/><path class="cls-19" d="M279.11,285.76l-3.22,0Z" transform="translate(0.04 -0.27)"/><path class="cls-19" d="M272,285.06l-2-.82Z" transform="translate(0.04 -0.27)"/><path class="cls-3" d="M98,286.77l-2.57-1.58Z" transform="translate(0.04 -0.27)"/><path class="cls-3" d="M113,290l-1.32.89-.63-1.08Z" transform="translate(0.04 -0.27)"/><path class="cls-3" d="M105,289.62l-2.56-1.44Z" transform="translate(0.04 -0.27)"/><path class="cls-20" d="M233.25,443.62l-.06-24.78,10.33,0c0,6.92,0,13.85.11,20.77,0,3.33-1.12,5.77-4.55,6.7h-3.15l-1-.32Z" transform="translate(0.04 -0.27)"/><path class="cls-19" d="M269,459.2c2.68,1.92,5.78,3.06,5.9,4.45.34,3.86-3.27,5-6.16,4.61-2.35-.32-4.44-2.48-6.65-3.83Z" transform="translate(0.04 -0.27)"/><path class="cls-19" d="M233.47,404.9c-.1-1.44-.2-2.88-.32-4.72l10.93-.9V404c-.18.57-.35,1.15-.53,1.72C240,408,236.73,406.39,233.47,404.9Z" transform="translate(0.04 -0.27)"/><path class="cls-19" d="M233,414l.3-3.81,10.14.88,0,4.9-10.15-1.43A1.55,1.55,0,0,0,233,414Z" transform="translate(0.04 -0.27)"/><path class="cls-21" d="M243.48,411.07l-10.14-.88c0-1.77.08-3.53.13-5.29,3.26,1.49,6.51,3.12,10.08.84C243.53,407.52,243.51,409.3,243.48,411.07Z" transform="translate(0.04 -0.27)"/><path class="cls-22" d="M233.36,414.54,243.51,416c0,1,0,1.93,0,2.89l-10.33,0C233.25,417.41,233.3,416,233.36,414.54Z" transform="translate(0.04 -0.27)"/><path class="cls-4" d="M230.23,467.07l-7-1.11.3-1.77,6.83,1.19C230.34,465.94,230.29,466.51,230.23,467.07Z" transform="translate(0.04 -0.27)"/><path class="cls-7" d="M235.93,446.33h3.15C238,448.52,237,448.53,235.93,446.33Z" transform="translate(0.04 -0.27)"/><path class="cls-7" d="M233.25,443.62,235,446Z" transform="translate(0.04 -0.27)"/><path class="cls-16" d="M140,440c.11,3.37.22,6.73.32,10.1l-3.14,3.64-5.39,0-2.49-4.58c-.27-1.56-.55-3.12-.83-4.68-.14-1.18-.28-2.36-.41-3.54q.13-8.61.29-17.23l10.22.1Q139.3,431.92,140,440Z" transform="translate(0.04 -0.27)"/><path class="cls-19" d="M164.46,465.49c2.4,2,7,4.37,6.79,5.91-.72,4.2-5.1,3.63-8.6,3.27a4.48,4.48,0,0,1-2.36-.67,53.38,53.38,0,0,1-3.81-4c1.51-1.07,3-2.24,4.57-3.15a6.15,6.15,0,0,1,2.46-.21Z" transform="translate(0.04 -0.27)"/><path class="cls-7" d="M136.11,481.91l-3.89.17q-1-4.15-2.08-8.29l1.38-.68Z" transform="translate(0.04 -0.27)"/><path class="cls-8" d="M131.81,453.76l5.39,0Z" transform="translate(0.04 -0.27)"/><path class="cls-7" d="M118,470l5.47,1.65-.81,1.61L118,470Z" transform="translate(0.04 -0.27)"/><path class="cls-8" d="M128.49,444.5c.28,1.56.56,3.12.83,4.68C129.05,447.62,128.77,446.06,128.49,444.5Z" transform="translate(0.04 -0.27)"/><path class="cls-7" d="M116.46,470.38c-.1-.86-.2-1.71-.29-2.56L118,470l0,0Z" transform="translate(0.04 -0.27)"/><path class="cls-23" d="M206,354.69l-1.06-.22-4.88.12-5.33.25h-1.54l-3.38.05-3.81-.06-11.5.82c-17.44.25-34.88.53-52.32.72-3.81,0-7.63-.21-11.44-.33q-.22-12.57-.46-25.13c0-1.27,0-2.54,0-3.8l1.35-18.39,4.36-.81h1.88l3-.07c13.39,0,26.78.23,40.16.1,9.31-.1,18.61-.64,27.91-1l2.1,0,.43,0,.43-.06,14.3,1.53c-.76,2.42-1.41,4.51-2.07,6.6l-1,.37-2.15.22-7.84-.14-13.29,1.28-.06,10.37c1.55.56,3.09,1.54,4.67,1.61,5.77.27,11.56.24,17.35.32.29.4.57.8.86,1.19l10.1,11.84c2.38,3.15,5.3,5,8.57,1.56,3.11-3.32,5.65-7.18,8.44-10.79,2.53-4.82,6.75-5.59,11.64-5a23.69,23.69,0,0,0,5,0c6.36-.6,4.09-5.55,4.55-9.14s-1.75-4.63-4.78-4.65c-4,0-8-.14-12,.05-3.13.15-5.16-.87-5.82-4.05,2.19-1.09,4.35-3,6.58-3.13,15.22-.56,30.45-.67,45.67-1,10.78-.26,21.56-.69,32.34-1q.72,5.43,1.42,10.85l-.24,6.15q.09,3.17.16,6.32l.54,14.72q-.11,3.33-.2,6.68c-.25.74-.51,1.47-.76,2.21l0-.05L235,353.9l-9,.31-1.92.12-12.87.33Zm-61.5-36.41v0c-5.14,0-10.29,0-15.43,0-4.15,0-4.15,2.93-4.08,5.91.08,2.74-.77,6.21,3.54,6.3,10.45.21,20.9.3,31.36.17,4.1-.05,4.08-3.37,3.57-6.23-.48-2.65,1-6.76-4.53-6.27C154.18,318.62,149.34,318.28,144.53,318.28ZM285,313.94v.1c-4.66,0-9.34.21-14-.07-3.62-.21-4.41,1.7-4.07,4.55.38,3.13-1.56,7.9,3.8,8.23,9.63.59,19.3.59,28.95.76,2.5.05,4.19-.94,4-3.85-.11-1.83-.05-3.66-.12-5.5-.1-2.93-1.22-4.5-4.59-4.29C294.34,314.15,289.66,313.94,285,313.94Z" transform="translate(0.04 -0.27)"/><path class="cls-13" d="M24.05,254.18c4.48-1.9,9-3.77,13.44-5.7,3.75-1.62,5.49,0,6.25,3.87l-13.37,7-13.14,9.5c-3.92,3.31-2.39,7,.48,9.31a157.18,157.18,0,0,0,17.6,11.93,11.17,11.17,0,0,0,7,1.19c8.28-1.33,13,.67,16.48,8.14,2.53,5.38,4.92,10.85,6.93,16.43.77,2.13.32,4.7.42,7.07l-1.6.16-2-4.5c-1.54,7.29-5.87,10.26-12.3,11.27-.12-2.31-.21-4.3-.37-7.64-3.63,5.25-7,8.65-12.58,5.66-3.44-2.23-6.83-4.55-10.34-6.66-2.83-1.7-2.93-3.77-.43-5.36,1.79-1.13,4.38-.92,6.34-1.86a5.58,5.58,0,0,0,2.88-3.41c.54-3.62.48-7.33.66-11.1-7.27-4.86-15.74-10.23-23.89-16.05C.7,275,.84,269.87,12.84,261.4,16.47,258.84,20.31,256.58,24.05,254.18Z" transform="translate(0.04 -0.27)"/><path class="cls-6" d="M104.9,308c.69.94,2,1.87,2,2.82.09,14.63,0,29.25-.05,43.88,0,.28-.32.56-.78,1.33-4.2-1.92-8.48-3.82-12.72-5.83-9.7-4.61-19.28-9.52-29.13-13.8-3.72-1.61-4.69-3.76-4.06-7.3,3.83-2,9.31-2.45,9.64-8,.29-4.86,2.87-4.75,6.25-4.23,4.18,2,8.31,4.07,12.56,5.87,7.08,3,9.44,1.18,8.17-6.41a6.85,6.85,0,0,0-3-4.13c-3.37-2.07-7-3.66-10.59-5.44-4.4-3.37-8.81-6.36-14.73-6.91-6.53-.62-10.3-6.16-8.19-10.88l14.53,4.95c4.84,2.42,9.6,5,14.52,7.21,4.76,2.16,9.66,4,14.51,5.95l.12.07Z" transform="translate(0.04 -0.27)"/><path class="cls-24" d="M60.32,288.93C58.2,293.66,62,299.2,68.5,299.82c5.92.55,10.33,3.54,14.73,6.92l-6.3-.73-11.76-3.56c1.16,8.13,3.48,11.12,7.53,11q1.68,1.68,3.35,3.37c-3.38-.52-6-.63-6.25,4.23-.33,5.54-5.81,6-9.64,8-7,4.8-14.64,1.4-22,1.71-2,.08-2.29-1.33-.88-2.91,5.59,3,8.95-.41,12.58-5.66.16,3.34.25,5.33.37,7.64,6.43-1,10.76-4,12.3-11.27l2,4.5,1.6-.16c-.1-2.37.35-4.94-.42-7.07-2-5.58-4.4-11-6.93-16.43-3.52-7.47-8.2-9.47-16.48-8.14a11.17,11.17,0,0,1-7-1.19,157.18,157.18,0,0,1-17.6-11.93c-2.87-2.3-4.4-6-.48-9.3.6,2.06,1.2,4.09,1.8,6.13,6.18,4.08,12.31,8.24,18.58,12.19a8.74,8.74,0,0,0,4.24.85c4.59.1,9.17,0,13.95,0,.15-1.14.45-3.58.76-6l3.19,1.73,2.19,3.32Z" transform="translate(0.04 -0.27)"/><path class="cls-7" d="M103.87,307.05c-4.85-2-9.75-3.79-14.51-5.95-4.92-2.23-9.68-4.79-14.52-7.21l.33-1.4,28.94,12.74Z" transform="translate(0.04 -0.27)"/><path class="cls-8" d="M111.68,308.72l-1.35,18.39c0-5.87.08-11.74.19-17.61C110.52,309.23,111.27,309,111.68,308.72Z" transform="translate(0.04 -0.27)"/><path class="cls-8" d="M110.31,330.91q.22,12.57.46,25.13Q110.53,343.47,110.31,330.91Z" transform="translate(0.04 -0.27)"/><path class="cls-9" d="M174.53,355.65l11.5-.82Z" transform="translate(0.04 -0.27)"/><path class="cls-9" d="M194.76,354.84l5.33-.25L200,355Z" transform="translate(0.04 -0.27)"/><path class="cls-7" d="M106.27,305.53l2.21-2.29Z" transform="translate(0.04 -0.27)"/><path class="cls-8" d="M117.92,307.92H116c0-.51-.07-1-.11-1.55l2.13-.05C118,306.84,118,307.38,117.92,307.92Z" transform="translate(0.04 -0.27)"/><path class="cls-9" d="M189.84,354.89l3.38-.05Z" transform="translate(0.04 -0.27)"/><path class="cls-19" d="M111.71,305.09l1.29.9Z" transform="translate(0.04 -0.27)"/><path class="cls-7" d="M104.9,308l-.91-.84Z" transform="translate(0.04 -0.27)"/><path class="cls-13" d="M370.85,120.92c-6,5-7,12.34-9.16,19.43l-2.31-14.29,5-7.91.82-.84C367.78,117.4,371.49,115.75,370.85,120.92Z" transform="translate(0.04 -0.27)"/><path class="cls-17" d="M383.89,137,383.2,126C386.48,129.46,385.26,133.24,383.89,137Z" transform="translate(0.04 -0.27)"/><path class="cls-9" d="M372.07,180q-.48,2.61-1,5.22Q371.6,182.6,372.07,180Z" transform="translate(0.04 -0.27)"/><path class="cls-17" d="M364.58,106.14,364,104l2.48,1C365.84,105.36,365.21,105.75,364.58,106.14Z" transform="translate(0.04 -0.27)"/><path class="cls-9" d="M359,97.46,356,97.13Z" transform="translate(0.04 -0.27)"/><path class="cls-17" d="M369.53,154.9l2.52-1.4Z" transform="translate(0.04 -0.27)"/><path class="cls-17" d="M380.65,144.91l1.22-2.34Z" transform="translate(0.04 -0.27)"/><path class="cls-17" d="M365.18,117.31l-.82.84c-.26-.9-.52-1.8-.77-2.7l1.17-1.08Z" transform="translate(0.04 -0.27)"/><path class="cls-17" d="M381.93,124.24l-1.47-1.11Z" transform="translate(0.04 -0.27)"/><path class="cls-16" d="M68.92,231.89c5.48-.14,8.79,4.13,5.91,8.56a65.88,65.88,0,0,1-25.39,23.33c-4.15,2.11-7.59-.49-10.19-4.31,3.19-2.31,6.11-4.63,8.62.9,2.09-7.56-2.54-16-9.59-19.43l-5.22,6.4c-1.61-8.94-1.19-9.8,6.1-11.61,4-1,8.11-1.4,12.17-2.08-.56,2.42-1.11,4.84-1.67,7.26,3.12.41,6.27,1.28,9.35,1.07,2.67-.19,5.26-1.62,7.89-2.47C73.08,237.5,73.29,236.69,68.92,231.89Z" transform="translate(0.04 -0.27)"/><path class="cls-25" d="M63.8,226.78a80.63,80.63,0,0,1,4.58-8.19c3.57-5,11.22-5.08,15.16-.43,5.72,6.76,6.29,21.38.27,27.9-2.31,2.5-6.55,3.22-9.91,4.75,3.09-3.67,7.39-6.38,6.43-12.54-1.25-8-4.47-11.4-12.56-11.35C66.45,226.93,65.12,226.83,63.8,226.78Z" transform="translate(0.04 -0.27)"/><path class="cls-15" d="M68.92,231.89c4.37,4.8,4.16,5.61-2,7.62-2.63.85-5.22,2.28-7.89,2.47-3.08.21-6.23-.66-9.35-1.07.56-2.42,1.11-4.84,1.67-7.26l.07.3,1.56-.72Z" transform="translate(0.04 -0.27)"/><path class="cls-10" d="M31,261.93c-3,2.16-6,4.46-9.19,6.44C19.17,270,18.19,272.05,19,275c-.6-2-1.2-4.07-1.8-6.13l13.14-9.51Z" transform="translate(0.04 -0.27)"/><path class="cls-16" d="M53,233.23,51.4,234Z" transform="translate(0.04 -0.27)"/><path class="cls-4" d="M162.83,366.11l.43-4.14c.77,2.79,1.28,4.43,1.59,6.12a10.31,10.31,0,0,1-2,.81C162.86,368,162.84,367,162.83,366.11Z" transform="translate(0.04 -0.27)"/><path class="cls-4" d="M162,369.83l-1.11,1Z" transform="translate(0.04 -0.27)"/><path class="cls-6" d="M220.91,364.07c-.87-1.63-1.75-3.25-2.63-4.88l4.68-2.12,5-.08,7.08,0h1.83l13.08-.89,1.08.72,14.9-.79c0,7.95-1.47,10.49-9.4,11.85C244.44,370,232.19,370.89,220.91,364.07Z" transform="translate(0.04 -0.27)"/><path class="cls-13" d="M244.92,373c0,6.5.09,12.8,0,19.09-.08,4-3.08,5.26-6.41,5.39-4,.16-4.46-2.54-4.09-5.76.49-4.28.65-8.61,1.31-12.86C236.78,371.85,236.9,371.87,244.92,373Z" transform="translate(0.04 -0.27)"/><path class="cls-9" d="M226,354.21l9-.31Z" transform="translate(0.04 -0.27)"/><path class="cls-7" d="M228,357l-5,.08,1.19-.3Z" transform="translate(0.04 -0.27)"/><path class="cls-7" d="M236.91,357h0Z" transform="translate(0.04 -0.27)"/><path class="cls-7" d="M251.07,356.85l-1.08-.72Z" transform="translate(0.04 -0.27)"/><path class="cls-13" d="M140.05,377.33l1.52.72q-1,12.87-2,25.74h-9.66V393.15c.74-4.82,1.46-9.64,2.26-14.45a5.34,5.34,0,0,1,.91-1.59Z" transform="translate(0.04 -0.27)"/><path class="cls-21" d="M138.61,410.91l-.09,5.15-9.53-.34c.3-1.94.61-3.87.91-5.8Z" transform="translate(0.04 -0.27)"/><path class="cls-22" d="M138.59,423.83l-10.22-.1c.16-1.61.31-3.22.47-4.82l9.75,1.18Z" transform="translate(0.04 -0.27)"/><path class="cls-19" d="M138.61,410.91l-8.71-1c-.21-1.24-.42-2.47-.78-4.63l10.11,1.7C139,408.29,138.82,409.6,138.61,410.91Z" transform="translate(0.04 -0.27)"/><path class="cls-16" d="M138.59,420.09l-9.75-1.18.15-3.19,9.53.34C138.54,417.4,138.57,418.74,138.59,420.09Z" transform="translate(0.04 -0.27)"/><path class="cls-10" d="M314.88,343l-.54-14.72q.8,7.47,1.58,14.92Z" transform="translate(0.04 -0.27)"/><path class="cls-2" d="M314.88,343l1,.2.66,8.89-1.79-.07c0-.78-.07-1.56-.11-2.34Q314.77,346.33,314.88,343Z" transform="translate(0.04 -0.27)"/><path class="cls-10" d="M314.18,322l.24-6.15a1.19,1.19,0,0,1,.63.21Z" transform="translate(0.04 -0.27)"/><path class="cls-10" d="M314.68,349.67c0,.78.07,1.56.11,2.34a4.25,4.25,0,0,1-.87-.13C314.17,351.14,314.43,350.41,314.68,349.67Z" transform="translate(0.04 -0.27)"/><path class="cls-9" d="M313,305c-10.78.35-21.56.78-32.34,1-15.22.36-30.45.47-45.67,1-2.23.09-4.39,2-6.58,3.13-.48-1.67-.95-3.35-1.43-5L243,303.2l16.9-.57h20l5.13,0h20.87L312,303Z" transform="translate(0.04 -0.27)"/><path class="cls-19" d="M312,303l-6.07-.36,6.13-.48A1,1,0,0,1,312,303Z" transform="translate(0.04 -0.27)"/><path class="cls-26" d="M130.09,92.29l3.27-5.39c1-.37,2.47-.42,3.1-1.16,4.07-4.74,8-9.63,11.92-14.47,22.67-9.7,44.19-9.74,63.63,7.61a29.83,29.83,0,0,1,3,3.83c1.37,2.5,2.49,5.13,3.71,7.71-2.5.53-5,1-7.49,1.59a18.66,18.66,0,0,0-2.13,1.12c5.93.69,10.49,2.74,15.49.94l1.4,2.05a20.84,20.84,0,0,1-.62,4.37,2.71,2.71,0,0,1-2.24,1.22c-5.35-.51-10.76-2.11-16-1.65-11.75,1-23.42,3.07-35.13,4.69-4.76.06-9.52.19-14.29.16-5.26,0-10.53-.19-15.79-.3l-8.77,0-7.86-.69c-.94-9.6,7.65-6.22,11.78-8.7C133.16,91.21,133.16,91.21,130.09,92.29Zm62.58-.8-34.94,4.28C161,99.42,185.28,97.23,192.67,91.49Z" transform="translate(0.04 -0.27)"/><path class="cls-20" d="M128,120.13c-.35-2.12-.69-4.23-1-6.35,0-1.61.07-3.22.11-4.83,3.24-.57,6.48-1.57,9.73-1.63,12.41-.24,24.82-.17,37.23-.2,1.22,0,2.43.14,3.7.22-2.55,12-2.21,14.91,2.14,20,4.31,5.54,10.31,6.2,16.56,5.31,12-1.68,18.46-16.14,11.69-25.66l-.78-1.86,1.57-2.71c2.31,0,4.62.2,6.92.13,3.56-.1,5.58,1,5.38,5.1-.19,3.76.26,7.56.44,11.34q-1.06,4.86-2.11,9.72c-.3.77-.59,1.54-.88,2.31l-.68,1c-.53,1-1.06,1.93-1.58,2.9l-1.33,2.27-2.49,4.8a.78.78,0,0,0-.62.69l-1.18.85a.73.73,0,0,0-.84.37l-3.11.91h0c-2.12,0-4.26-.09-6.37.08s-4,.61-5.92.93l-12.31-1.17c-.86-1.17-1.54-3.12-2.61-3.36-7.11-1.6-14.3-2.84-21.46-4.19-7.05-.71-14.13-1.2-21.12-2.29-1.61-.26-3.31-2.37-4.23-4C131,127.37,129.6,123.69,128,120.13Z" transform="translate(0.04 -0.27)"/><path class="cls-27" d="M285.89,237.34c-.1-14.56,5.3-22.19,15.45-24.59,5.46-1.28,11.47,1.07,15,7.38,6.27,11.39,9.22,23.45,3.07,36a16.66,16.66,0,0,1-14.25,9.59c-5.4.35-9.63-2.9-12.69-7.48A40.74,40.74,0,0,1,285.89,237.34Z" transform="translate(0.04 -0.27)"/><path class="cls-27" d="M122.27,49.06c-1.58,7.73-1.06,16.24-7.19,22.23-9.47,9.24-20.48,5.46-26-4.93-5.94-11.16-3.08-22,3.42-31.8C96.17,29,102.56,27.09,109.27,28s9.72,5.85,11.39,11.71A87.79,87.79,0,0,1,122.27,49.06Z" transform="translate(0.04 -0.27)"/><path class="cls-27" d="M131.4,264.13c-12.77,0-24.7-14.76-21.16-26.15,2.14-6.9,11.37-14.95,17.17-15,7.77,0,16,6.52,18.44,15a40,40,0,0,1,2,9.65C148.19,259.46,143.38,264.15,131.4,264.13Z" transform="translate(0.04 -0.27)"/><path class="cls-28" d="M182.26,144.65l12.31,1.17,10.6.29,7.14.94L200,158l-9,3.07c-18.1,6.76-33.79,1.57-48.3-9.66l2.49-3L134,149,129,146.12l2.91-.24c-1-1.79-1.8-3.36-3.35-6.25,3.73-.8,6.91-2.09,10.06-2,6.12.12,12.22,1,18.33,1.55Zm2.54,8.5c-7.59-4.32-15.44-7.28-24.1-5.88-.1.51-.19,1-.28,1.51Z" transform="translate(0.04 -0.27)"/><path class="cls-17" d="M247.84,178c.37-1.41.73-2.83,1.24-4.78l-18.89-3.37.22-2.08,11.67,1.19,11.83,0c9.41-.48,19.07.28,27.84-3.94a76.58,76.58,0,0,0,15.17-9.19c4.55-3.68,4.66-10.6,1.43-16s-7.2-7.64-13.41-5.28a132.27,132.27,0,0,0-21.71,10.8c-6.39,3.91-13.14,5.11-20.31,5.36l-14.44-.43-.27.06-.18-.22a4.23,4.23,0,0,1-.1-.94l4.63-.58c6.76-.9,13.55-1.65,20.26-2.82,1.66-.29,3.06-2,4.91-3.28,6.59-3,13.83-5.77,20.55-9.5,4.67-2.59,9-3.9,14.14-2.23,6.21,2,8.85.75,12.32-5.29l-2.77-2,1-3.49c6.35,3.57,6.71,5.86,2.29,11.66-2.34,3.07-3.56,6.25-2,10.52,2.87,8.15-.69,15.28-8.84,20.51a61.15,61.15,0,0,1-34.46,9.72c-5.5-.07-8.38,1.81-10.22,6.46Z" transform="translate(0.04 -0.27)"/><path class="cls-24" d="M247.84,178l1.87.94c0,2.06,0,4.11.07,6.17.28.65.56,1.31.83,2,1.21,3.11,2.28,6.29,3.68,9.31.81,1.76,2,3.25-1,3.84L248,201.65,229.76,205c-2.6,1.22-2.58,2.57-.2,4l0,2.94-.51,6c0,3.43,2.36,3.86,5,4l6-.59,9.84-.7V206l2.33,2c.19,1.69.37,3.38.56,5.07.16.64.31,1.28.47,1.93.06,2.38.12,4.77.19,7.15l-4.36,1.75-8.78.18-11.77.13c-3.34-.52-2.9-2.92-2.6-5.25l-.12-13.83c-3.39-2.84-3,.13-3,2.06-.27,6-.46,11.91-.68,17.86L220,226.48l-3.92.25-4-.07c-4.25.13-8.5.45-12.72.27-1.5-.06-2.95-1.35-4.41-2.08-.31-.92-.61-1.84-.92-2.77l.42-7.07c.42-2.8.83-5.6,1.25-8.4-1.2-7.22-1.2-7.22-10.89-5.77.11-.73.22-1.44.33-2.16l3-.45,3-.47,9.69.14,2.06.27,5.17.58,4.08,1L248.22,198c3.94-4-.31-6.82-1.38-10.1v-6.87l.92-2.7ZM198.6,200.85c-.52,7-1.15,13.26-1.32,19.53,0,1.13,1.78,3.25,2.82,3.31,5,.26,10,0,15-.17,2.63-.12,4.32-1.31,4.25-4.37-.13-5.12,0-10.23,0-15.47Z" transform="translate(0.04 -0.27)"/><path class="cls-17" d="M219.83,66.78c2.56-1.51,5-3.37,7.71-4.43,3.87-1.5,8-2.23,12-3.61,19.34-6.81,36.21-1.71,51.24,10.93,5.21,4.38,9.57,9.77,14.16,14.83.73.8.65,2.34.93,3.54L303,88c-2.08-5.29-7.42-7.67-10.91-11.76-10.38-12.14-24.26-18.25-40.6-17-4.07.32-8,1.92-12.63,3.07l2,2.91-19,2.12Z" transform="translate(0.04 -0.27)"/><path class="cls-22" d="M184.46,232c2.68,2.3,5.24,4.77,8.08,6.86,9,6.67,17.5,9.33,27.92,2.84,6.76-4.21,13.59-3.84,20.48-1.29,7.7,2.85,8.49,2.86,14-3.35a4.19,4.19,0,0,1,1.26-.68c1.56,6.42-4.18,12.5-10.3,11a22.23,22.23,0,0,1-6-2.26c-7.36-4.44-12.13-4.34-19.14.73-10.32,7.47-18.17,6.94-27.4-2.08-3.47-3.39-6.61-7.11-9.9-10.68Z" transform="translate(0.04 -0.27)"/><path class="cls-17" d="M212,78.88c-19.44-17.35-41-17.31-63.63-7.61l-1.5-1.46c14.22-12.59,53.11-11.48,66.39,7Z" transform="translate(0.04 -0.27)"/><path class="cls-27" d="M166.6,219.2c-.85,2.85-.9,5-2,6.2-2.15,2.47-4.58,5.21-7.47,6.32-1.49.57-5.83-1.88-6.08-3.43-.58-3.46.48-7.24,1.12-10.85a3.73,3.73,0,0,1,2-2.13c2.53-1.18,5.76-3.54,7.62-2.77C164.08,213.47,165.23,217.11,166.6,219.2Z" transform="translate(0.04 -0.27)"/><path class="cls-27" d="M321.89,37.44c0,4.68-2.55,8.3-5.92,8.37-3.78.09-7.89-4.5-7.9-8.81,0-5,3.51-10,7-10C319,27,321.87,31.36,321.89,37.44Z" transform="translate(0.04 -0.27)"/><path class="cls-17" d="M134,149l11.14-.51-2.49,3c14.51,11.23,30.2,16.42,48.3,9.66v2.71c-20.89,5.93-39.36,2.23-54.8-13.69A8.39,8.39,0,0,0,134,149Z" transform="translate(0.04 -0.27)"/><path class="cls-2" d="M303,88l2.87,0-.21,5.87-2.54,2.28a24.52,24.52,0,0,0-.87,4.94c.14,6.3.49,12.6.77,18.9l-1,3.49-9.9.09c0-.79,0-1.58,0-2.36,5,.3,6.38-3.08,6.59-7,.22-4.21-.15-8.46-.26-12.7L298,99c-.58-2.28-1.15-4.56-1.73-6.85l2.84,1,.76.9,1,.48Q301.91,91.27,303,88Z" transform="translate(0.04 -0.27)"/><path class="cls-9" d="M156.92,139.15c-6.11-.56-12.21-1.43-18.33-1.55-3.15-.06-6.33,1.23-10.06,2,1.55,2.89,2.38,4.46,3.35,6.25l-2.91.24-.89-1.16c-.37-.65-.75-1.3-1.13-1.94.53-2.33,1.48-4.65,1.48-7,0-3.62-.75-7.23-1-10.85a30.26,30.26,0,0,1,.56-5.07c1.57,3.56,2.94,7.24,4.81,10.64.92,1.67,2.62,3.78,4.23,4,7,1.09,14.07,1.58,21.12,2.29l1.27,1.63Z" transform="translate(0.04 -0.27)"/><path class="cls-27" d="M144,54c-.81-1.12-3.31-3.06-3.48-5.18-.35-4.49,5-9.84,8.47-9.76s5.06,1.87,4.93,5.34C153.7,49.51,149.76,54.22,144,54Z" transform="translate(0.04 -0.27)"/><path class="cls-5" d="M227.93,149.21a4.23,4.23,0,0,0,.1.94l-3.07,0-1.32-2.29-2.59-1.38c-1.23-1.34-2.46-2.76-3.13.39l-4.94,5c-.72-2.78-1.45-5.56-2.17-8.34l1.18-.85.62-.69,2.49-4.8,1.33-2.27c.52-1,1-1.93,1.58-2.9l.68-1c.29-.77.58-1.54.88-2.31l2.38.55c-1.77,6.69-1.13,7.52,6.07,7.86l-1,2.73-6.13,1.1c2.09,4.91,6.44,4.34,10,5.26Z" transform="translate(0.04 -0.27)"/><path class="cls-24" d="M212,78.88l1.26-2,3.9,3.85,3.42.7c-.23-1.15-.45-2.29-.68-3.43q-.78-4.49-1.57-9c.51-.74,1-1.49,1.51-2.23l0,0,2,.58c-.49,3.44-2.84,7.29,2.06,9.56l2.2,1.1c-2.81,4.39-5.55,8.8-1.63,14l.07,2.08c-5,1.8-9.56-.25-15.49-.94A18.66,18.66,0,0,1,211.18,92c2.49-.54,5-1.06,7.49-1.59-1.22-2.58-2.34-5.21-3.71-7.71A29.83,29.83,0,0,0,212,78.88Z" transform="translate(0.04 -0.27)"/><path class="cls-27" d="M280,247.35c-.07,3.15.18,6.68-4.09,7.25-3.5.46-6.9-3.4-6.93-7.39s2.66-7.05,6-7C278,240.18,280,243.1,280,247.35Z" transform="translate(0.04 -0.27)"/><path class="cls-29" d="M127.1,109c0,1.61-.07,3.22-.11,4.83-.82-1.92-1.21-4.23-2.54-5.69-4.93-5.43-4.46-10,1.78-13.61,1.28-.74,2.57-1.46,3.86-2.19,3.07-1.08,3.07-1.08,6.93,2.9-4.13,2.48-12.72-.9-11.78,8.7l7.86.69a14.31,14.31,0,0,0-3.64,1.39A13.49,13.49,0,0,0,127.1,109Z" transform="translate(0.04 -0.27)"/><path class="cls-29" d="M146.88,69.81l1.5,1.46c-3.95,4.84-7.85,9.73-11.92,14.47-.63.74-2.05.79-3.1,1.16C134.89,78.84,140.39,73.94,146.88,69.81Z" transform="translate(0.04 -0.27)"/><path class="cls-17" d="M210.81,143.54c.72,2.78,1.45,5.56,2.17,8.34l-10.51,7.42L200,158l12.3-11-7.14-.94,1.69-1.3h0l3.11-.91A.73.73,0,0,1,210.81,143.54Z" transform="translate(0.04 -0.27)"/><path class="cls-29" d="M200,158l2.46,1.27L191,163.81c0-.91,0-1.81,0-2.71Z" transform="translate(0.04 -0.27)"/><path class="cls-29" d="M228.48,150.31l14.44.43Z" transform="translate(0.04 -0.27)"/><path class="cls-9" d="M225.78,205.17,225.9,219Z" transform="translate(0.04 -0.27)"/><path class="cls-25" d="M253.91,169l-11.83,0Z" transform="translate(0.04 -0.27)"/><path class="cls-9" d="M252.19,208l-2.33-2c-.61-1.46-1.22-2.91-1.82-4.37l5.23-1.47Z" transform="translate(0.04 -0.27)"/><path class="cls-1" d="M179,201.79l-5.86,3.4-1.06-2,6.93-3.06C179,200.69,179,201.24,179,201.79Z" transform="translate(0.04 -0.27)"/><path class="cls-9" d="M228.5,224.25l11.77-.13Z" transform="translate(0.04 -0.27)"/><path class="cls-17" d="M246.84,187.94c1.07,3.28,5.32,6.13,1.38,10.1Z" transform="translate(0.04 -0.27)"/><path class="cls-25" d="M179,201.79c0-.55,0-1.1,0-1.65l6.14-1.46c-.11.72-.22,1.43-.33,2.16Z" transform="translate(0.04 -0.27)"/><path class="cls-25" d="M228,168.49l-4.57-1.8.56-1.41,4,1.77C228,167.53,228,168,228,168.49Z" transform="translate(0.04 -0.27)"/><path class="cls-10" d="M195.72,206.61c-.42,2.8-.83,5.6-1.25,8.4C194.89,212.21,195.3,209.41,195.72,206.61Z" transform="translate(0.04 -0.27)"/><path class="cls-17" d="M219.91,78c.23,1.14.45,2.28.68,3.43l-3.42-.7Z" transform="translate(0.04 -0.27)"/><path class="cls-25" d="M212.14,199.78l-4.08-1Z" transform="translate(0.04 -0.27)"/><path class="cls-9" d="M249.05,223.94l4.36-1.75Z" transform="translate(0.04 -0.27)"/><path class="cls-25" d="M191.14,197.76l-3,.47Z" transform="translate(0.04 -0.27)"/><path class="cls-17" d="M303.09,96.19l2.54-2.28Z" transform="translate(0.04 -0.27)"/><path class="cls-10" d="M194.05,222.08c.31.93.61,1.85.92,2.77C194.66,223.93,194.36,223,194.05,222.08Z" transform="translate(0.04 -0.27)"/><path class="cls-29" d="M217.92,146.84c.67-3.15,1.9-1.73,3.13-.39Z" transform="translate(0.04 -0.27)"/><path class="cls-28" d="M127,143c.38.64.76,1.29,1.13,1.94Z" transform="translate(0.04 -0.27)"/><path class="cls-17" d="M247.76,178.37l-.92,2.7Z" transform="translate(0.04 -0.27)"/><path class="cls-9" d="M253.22,215c-.16-.65-.31-1.29-.47-1.93C252.91,213.75,253.06,214.39,253.22,215Z" transform="translate(0.04 -0.27)"/><path class="cls-17" d="M219.85,66.8c-.5.74-1,1.49-1.51,2.23C218.85,68.29,219.35,67.54,219.85,66.8Z" transform="translate(0.04 -0.27)"/><path class="cls-10" d="M212.1,226.66l4,.07Z" transform="translate(0.04 -0.27)"/><path class="cls-10" d="M220,226.48l2.08-1.39Z" transform="translate(0.04 -0.27)"/><path class="cls-17" d="M250.61,187c-.27-.65-.55-1.31-.83-2C250.06,185.72,250.34,186.38,250.61,187Z" transform="translate(0.04 -0.27)"/><path class="cls-25" d="M202.89,198.17l-2.06-.27Z" transform="translate(0.04 -0.27)"/><path class="cls-29" d="M223.64,147.83l1.32,2.29Z" transform="translate(0.04 -0.27)"/><path class="cls-17" d="M228,168.49c0-.48,0-1-.05-1.44l2.12,1Z" transform="translate(0.04 -0.27)"/><path class="cls-25" d="M50.82,91.89c-.82,5-.88,8.6-2,11.79-2.19,6-7.61,7.22-13.39,4.73C26.35,104.51,21.2,90,23.3,81a11.37,11.37,0,0,1,9.33-8.76c6-1.1,11.21,1,13.93,6.39C48.82,83.1,49.7,88.24,50.82,91.89Z" transform="translate(0.04 -0.27)"/><path class="cls-25" d="M74,170.27c-.82,4.1-1.73,9.14-6.71,12.17a10.94,10.94,0,0,1-14.54-2.95c-4.47-6.34-4.78-18.47-.62-24.53,3.79-5.52,8.62-6.28,14-2.2C70.55,156.22,74,163.44,74,170.27Z" transform="translate(0.04 -0.27)"/><path class="cls-25" d="M72,125.14c.13,4-3.18,7.77-6.83,7.79-4.37,0-5.65-3-6-6.53-.39-4.17,4-10,7.26-10.13C69.36,116.19,71.81,120.1,72,125.14Z" transform="translate(0.04 -0.27)"/><path class="cls-25" d="M57,205.47c.33-5.2,2.69-7.47,6.18-7.92,1-.13,3.46,2.47,3.34,3.64-.33,3.34-2,6.54-6,6.5C59.17,207.68,57.82,206,57,205.47Z" transform="translate(0.04 -0.27)"/><path class="cls-8" d="M189,307c-9.3.34-18.6.88-27.91,1-13.38.13-26.77-.05-40.16-.1,0-.45,0-.9,0-1.36L124,306l24-.95,41,0C189,305.64,189,306.3,189,307Z" transform="translate(0.04 -0.27)"/><path class="cls-19" d="M205.06,293.22l3.29-2.47c1.12,2.64,2.1,4.93,3.07,7.23-.1.67-.21,1.35-.32,2-.14.29-.29.59-.43.89L210,302c-1,1.06-2,2.11-3,3.17L193,304.69l0-2.33c4.91,2.12,6.61-2.34,9.22-4.68C203.42,296.54,204.11,294.73,205.06,293.22Z" transform="translate(0.04 -0.27)"/><path class="cls-19" d="M148,305,124,306C131.89,302.63,139.94,303.72,148,305Z" transform="translate(0.04 -0.27)"/><path class="cls-8" d="M193,304.69l14.11.52c0,.58-.05,1.17-.08,1.75l-15,0-.43.06-.43,0c0-.68,0-1.36-.07-2Z" transform="translate(0.04 -0.27)"/><path class="cls-4" d="M120.92,306.49c0,.46,0,.91,0,1.36l-3,.07c0-.54.09-1.08.14-1.61Z" transform="translate(0.04 -0.27)"/><path class="cls-9" d="M191,305c0,.68,0,1.36.07,2l-2.1,0c0-.67,0-1.33,0-2Z" transform="translate(0.04 -0.27)"/><path class="cls-19" d="M243,303.2,227,305.13l-2.84-6.2a39.84,39.84,0,0,0,1.9-5.47c.92-4.65,2.43-1.55,3.84-.4,2.21,2.35,4.45,4.68,6.63,7.06,2,2.13,4.07,2.33,6.4.65Z" transform="translate(0.04 -0.27)"/><path class="cls-19" d="M275.07,302.62H259.93C263.11,300.33,271.86,300.32,275.07,302.62Z" transform="translate(0.04 -0.27)"/><path class="cls-19" d="M285.06,302.64l-5.13,0C281.66,300.28,283.37,300.26,285.06,302.64Z" transform="translate(0.04 -0.27)"/><path class="cls-19" d="M265.31,285.47l2.77-1.27Z" transform="translate(0.04 -0.27)"/><path class="cls-8" d="M75.17,292.49l-.33,1.4-14.53-4.95,1.63-1.85Z" transform="translate(0.04 -0.27)"/><path class="cls-29" d="M363.59,115.45c.25.9.51,1.8.77,2.7l-5,7.91-1.59-.15Q360.69,120.68,363.59,115.45Z" transform="translate(0.04 -0.27)"/><path class="cls-24" d="M351.91,118.32,347.79,117l4.2-1.9C352,116.17,351.94,117.24,351.91,118.32Z" transform="translate(0.04 -0.27)"/><path class="cls-29" d="M357.57,127.41c-.16.69-.32,1.39-.49,2.08L356,128.16Z" transform="translate(0.04 -0.27)"/><path class="cls-9" d="M211.1,300c.11-.68.22-1.36.32-2l3.88-1.21,5.64.29c0,.71,0,1.41-.05,2.11l-8.81.87C211.75,300,211.43,300,211.1,300Z" transform="translate(0.04 -0.27)"/><path class="cls-18" d="M212.08,300l8.81-.87,3.09,6.9c1.2,3.9,1.72,8.21,3.77,11.6,3.31,5.49,3.46,10.22-.69,15.08a59.66,59.66,0,0,0-5.14,5.9c-2.07,3.06-4.32,4.4-7.74,2.16l-9.28-10.95c-3.5-5.08.27-9.29,1.66-13.78.81-2,1.61-4,2.41-6l.06-.13.33-.29-.08-.4c.6-1.74,1.21-3.47,1.82-5.21.3-1,.59-2,.89-3Z" transform="translate(0.04 -0.27)"/><path class="cls-30" d="M227.06,332.75c4.15-4.86,4-9.59.69-15.08-2.05-3.39-2.57-7.7-3.77-11.6.05-2.38.11-4.76.16-7.14l2.84,6.2c.48,1.67,1,3.35,1.43,5,.66,3.18,2.69,4.2,5.82,4.05,4-.19,8-.08,12-.05,3,0,5.26.92,4.78,4.65s1.81,8.54-4.55,9.14a23.69,23.69,0,0,1-5,0c-4.89-.59-9.11.18-11.63,5Z" transform="translate(0.04 -0.27)"/><path class="cls-30" d="M144.53,318.28c4.81,0,9.65.34,14.43-.09,5.5-.49,4,3.62,4.53,6.27.51,2.86.53,6.18-3.57,6.23-10.46.13-20.91,0-31.36-.17-4.31-.09-3.46-3.56-3.54-6.3-.07-3-.07-5.89,4.08-5.91,5.14,0,10.29,0,15.43,0Z" transform="translate(0.04 -0.27)"/><path class="cls-30" d="M285,313.94c4.66,0,9.34.21,14-.07,3.37-.21,4.49,1.36,4.59,4.29.07,1.84,0,3.67.12,5.5.19,2.91-1.5,3.9-4,3.85-9.65-.17-19.32-.17-28.95-.76-5.36-.33-3.42-5.1-3.8-8.23-.34-2.85.45-4.76,4.07-4.55,4.64.28,9.32.07,14,.07Z" transform="translate(0.04 -0.27)"/><path class="cls-30" d="M206.56,316.08c-1.39,4.49-5.16,8.7-1.66,13.78l-2.2.49-.86-1.2c-1.2-.71-2.39-2-3.61-2-6.13-.15-12.27,0-18.41.1l.06-10.37,13.29-1.28,7.84.14,2.15-.22,1-.37Z" transform="translate(0.04 -0.27)"/><path class="cls-24" d="M227.06,332.75l2.76.2c-2.8,3.61-5.34,7.47-8.45,10.79-3.27,3.47-6.19,1.59-8.57-1.56l1.38-1.37c3.42,2.24,5.67.9,7.74-2.16A59.66,59.66,0,0,1,227.06,332.75Z" transform="translate(0.04 -0.27)"/><path class="cls-9" d="M214.18,340.81l-1.38,1.37-10.1-11.84,2.2-.48Z" transform="translate(0.04 -0.27)"/><path class="cls-9" d="M179.82,327.22c6.14-.07,12.28-.25,18.41-.1,1.22,0,2.41,1.32,3.61,2-5.79-.08-11.58,0-17.35-.32C182.91,328.76,181.37,327.78,179.82,327.22Z" transform="translate(0.04 -0.27)"/><path class="cls-9" d="M206.56,316.08l-2.4-1c.66-2.09,1.31-4.18,2.07-6.6L191.93,307l15,0,2,3.08C208.17,312.05,207.37,314.07,206.56,316.08Z" transform="translate(0.04 -0.27)"/><path class="cls-9" d="M193.17,315.57l-13.29,1.28Z" transform="translate(0.04 -0.27)"/><path class="cls-9" d="M203.16,315.49l-2.15.22Z" transform="translate(0.04 -0.27)"/><path class="cls-30" d="M76.93,306l6.3.73c3.55,1.77,7.22,3.36,10.59,5.43a6.85,6.85,0,0,1,3,4.13c1.27,7.59-1.09,9.4-8.17,6.41-4.25-1.8-8.38-3.9-12.56-5.87q-1.67-1.69-3.35-3.37Z" transform="translate(0.04 -0.27)"/><path class="cls-13" d="M76.93,306l-4.23,7.46c-4,.1-6.37-2.89-7.53-11Z" transform="translate(0.04 -0.27)"/><path class="cls-4" d="M127.1,109a13.49,13.49,0,0,1,2.36-3,14.31,14.31,0,0,1,3.64-1.39l8.77,0c1.46.44,2.91,1.23,4.38,1.26,6.38.15,12.76.19,19.13,0a41.74,41.74,0,0,0,6.57-1.17c11.71-1.62,23.38-3.65,35.13-4.69,5.24-.46,10.65,1.14,16,1.65a2.71,2.71,0,0,0,2.24-1.22,20.84,20.84,0,0,0,.62-4.37c5.53,3.29,1.13,6.41-.17,9.58h0L225,108c0,1.66,0,3.32-.05,5q-.51,3-1,6h-2.25c-.18-3.78-.63-7.58-.44-11.34.2-4.12-1.82-5.2-5.38-5.1-2.3.07-4.61-.08-6.92-.13l-2.64,1c.36.58.71,1.16,1.07,1.73l.78,1.86-2.21.08c-4.57-5.14-10.48-3.22-15.86-2.57-9.26,1.13-11.7,4.54-11.07,14.15a50.6,50.6,0,0,0,1.17,6.28c-.09.8-.18,1.6-.28,2.41-4.35-5.07-4.69-8-2.14-20-1.27-.08-2.48-.22-3.7-.22-12.41,0-24.82,0-37.23.2C133.58,107.38,130.34,108.38,127.1,109Z" transform="translate(0.04 -0.27)"/><path class="cls-29" d="M192.67,91.49c-7.39,5.74-31.68,7.93-34.94,4.28Z" transform="translate(0.04 -0.27)"/><path class="cls-29" d="M172,104.75a41.74,41.74,0,0,1-6.57,1.17c-6.37.14-12.75.1-19.13,0-1.47,0-2.92-.82-4.38-1.26,5.26.11,10.53.28,15.79.3C162.43,104.94,167.19,104.81,172,104.75Z" transform="translate(0.04 -0.27)"/><path class="cls-16" d="M225.77,105.7c1.3-3.17,5.7-6.29.17-9.58l-1.4-2.05c0-.69,0-1.38-.07-2.08,4.35.72,5.86,4.46,6.06,7.7C230.65,101.58,227.47,103.69,225.77,105.7Z" transform="translate(0.04 -0.27)"/><path class="cls-8" d="M179.9,127.32c.1-.81.19-1.61.28-2.41a32.42,32.42,0,0,0,2.66,2.18c5.7,3.72,12.63,5.06,19.62-.23,4.79-3.63,6.59-9.6,4.55-16.52-.33-1.1-.71-2.19-1.07-3.29l2.21-.08c6.77,9.52.28,24-11.69,25.66C190.21,133.52,184.21,132.86,179.9,127.32Z" transform="translate(0.04 -0.27)"/><path class="cls-25" d="M156.92,139.15l2.54-.42-1.27-1.63c7.16,1.35,14.35,2.59,21.46,4.19,1.07.24,1.75,2.19,2.61,3.36Z" transform="translate(0.04 -0.27)"/><path class="cls-8" d="M221.68,119h2.25l-2,10.26-2.38-.55Q220.62,123.83,221.68,119Z" transform="translate(0.04 -0.27)"/><path class="cls-8" d="M206.86,144.81l-1.69,1.3-10.6-.29c2-.32,3.93-.77,5.92-.93S204.74,144.83,206.86,144.81Z" transform="translate(0.04 -0.27)"/><path class="cls-8" d="M207.37,105.11c-.36-.57-.71-1.15-1.07-1.73l2.64-1C208.42,103.31,207.89,104.21,207.37,105.11Z" transform="translate(0.04 -0.27)"/><path class="cls-19" d="M216.43,134.93l-1.33,2.27Z" transform="translate(0.04 -0.27)"/><path class="cls-8" d="M210,143.91l-3.11.91Z" transform="translate(0.04 -0.27)"/><path class="cls-19" d="M212.61,142l-.62.69A.78.78,0,0,1,212.61,142Z" transform="translate(0.04 -0.27)"/><path class="cls-19" d="M218.69,131l-.68,1Z" transform="translate(0.04 -0.27)"/><path class="cls-29" d="M184.8,153.15l-24.38-4.37c.09-.5.18-1,.28-1.51C169.36,145.87,177.21,148.83,184.8,153.15Z" transform="translate(0.04 -0.27)"/><path class="cls-28" d="M230.85,146.19c-3.54-.92-7.89-.35-10-5.26l6.13-1.1,22.93-4,1.45-.38c1.92-.43,3.89-.74,5.77-1.3,11.65-3.47,23.28-7,34.91-10.51l9.91-.09,2.77,2c-3.47,6-6.11,7.29-12.32,5.29-5.19-1.67-9.47-.36-14.14,2.23-6.72,3.73-14,6.51-20.55,9.5-1.85,1.28-3.25,3-4.91,3.28-6.71,1.17-13.5,1.92-20.27,2.83C232,147.82,231.42,147,230.85,146.19Z" transform="translate(0.04 -0.27)"/><path class="cls-29" d="M230.85,146.19c.57.81,1.14,1.63,1.7,2.45q-2.31.27-4.62.57Z" transform="translate(0.04 -0.27)"/><path class="cls-16" d="M198.6,200.85l20.67,2.83c0,5.24-.09,10.35,0,15.47.07,3.06-1.62,4.25-4.25,4.37-5,.21-10,.43-15,.17-1-.06-2.85-2.18-2.82-3.31C197.45,214.11,198.08,207.85,198.6,200.85Z" transform="translate(0.04 -0.27)"/><path class="cls-16" d="M248,201.65c.6,1.46,1.21,2.91,1.82,4.37v14.66l-9.84.7-6,.59c-2.63-.12-5-.55-5-4l.51-6,0-2.94c.06-1.35.13-2.69.2-4Z" transform="translate(0.04 -0.27)"/><path class="cls-9" d="M234,222l6-.59Z" transform="translate(0.04 -0.27)"/><path class="cls-9" d="M229.53,212l-.51,6Z" transform="translate(0.04 -0.27)"/><path class="cls-9" d="M229.76,205c-.07,1.35-.14,2.69-.2,4C227.18,207.56,227.16,206.21,229.76,205Z" transform="translate(0.04 -0.27)"/><path class="cls-28" d="M223.9,76.92c-4.9-2.27-2.55-6.12-2.06-9.56l19-2.12-2-2.91c4.59-1.15,8.56-2.75,12.63-3.07,16.34-1.27,30.22,4.84,40.6,17,3.49,4.09,8.83,6.47,10.91,11.76-.7,2.18-1.41,4.36-2.11,6.53l-1-.47-.76-.9c.24-1.22.47-2.44.84-4.33l-10.74-1-.06.06-5-.87a33.78,33.78,0,0,0-3.2-1.13c-6.27-1.56-12.68-2.7-18.81-4.68-10.17-3.29-20.11-7.31-30.28-10.58-2.69-.87-5.9-.13-7.87-.13Zm55,1.23.79-2.36-20-6.12-.63,2Z" transform="translate(0.04 -0.27)"/><path class="cls-20" d="M225.77,105.7c1.7-2,4.88-4.12,4.76-6-.2-3.24-1.71-7-6.06-7.7-3.92-5.17-1.18-9.58,1.63-14,3-4.69,7-5,11.83-2.89,3.62,1.58,7.71,2.2,11.12,4.1,12.42,6.91,26,9,39.79,10.39l7.38,2.52c.58,2.29,1.15,4.57,1.73,6.85l.47,2.54c.11,4.24.48,8.49.26,12.7-.21,3.94-1.59,7.32-6.59,7l-42,12-.15-2.47,7.19-5.73c4.76-5.37,4.16-11.42,1.43-17.18-2.82-5.92-8.3-8.53-14.68-8.52-8.73,0-13,4.12-16.12,14.62l-2.81-1c0-1.66,0-3.32.05-5l.78-2.3Z" transform="translate(0.04 -0.27)"/><path class="cls-10" d="M250.08,133.27l42-12c0,.78,0,1.57,0,2.36-11.64,3.51-23.27,7-34.92,10.51-1.88.56-3.85.87-5.77,1.3l-1.32-.38-2.17-.11a2.9,2.9,0,0,0,0-.72Z" transform="translate(0.04 -0.27)"/><path class="cls-8" d="M296.22,92.14l-7.38-2.52c.11-.59.22-1.19.32-1.78l10.74,1c-.37,1.89-.6,3.11-.84,4.33Z" transform="translate(0.04 -0.27)"/><path class="cls-8" d="M298.42,101.53,298,99Z" transform="translate(0.04 -0.27)"/><path class="cls-8" d="M299.82,94.06l1,.47Z" transform="translate(0.04 -0.27)"/><path class="cls-16" d="M250.08,133.27l-2.22.94-2.74.74-2.17.32-1.86,0L228,137.1c-7.2-.34-7.84-1.17-6.07-7.86l2-10.26q.49-3,1-6l2.81,1c-.42,9.9,3.43,15.74,11.29,17.1l10.89-.29Z" transform="translate(0.04 -0.27)"/><path class="cls-9" d="M228,137.1l13.07-1.78,1.86,0,2.17-.32,2.77,0,2.17.11a1.79,1.79,0,0,0-.13.76l-22.93,4Z" transform="translate(0.04 -0.27)"/><path class="cls-10" d="M289.16,87.84c-.1.59-.21,1.19-.32,1.78-13.8-1.4-27.37-3.48-39.79-10.39-3.41-1.9-7.5-2.52-11.12-4.1-4.81-2.09-8.79-1.8-11.83,2.89l-2.2-1.1V70.51c2,0,5.18-.74,7.87.13,10.17,3.27,20.11,7.29,30.28,10.58,6.13,2,12.54,3.12,18.81,4.68a33.78,33.78,0,0,1,3.2,1.13l5,.87Z" transform="translate(0.04 -0.27)"/><path class="cls-4" d="M209,310,207,307c0-.58.05-1.17.08-1.75,1-1.06,2-2.11,3-3.17l1.08,2c-.61,1.74-1.22,3.47-1.82,5.21a1.29,1.29,0,0,0-.25.69Z" transform="translate(0.04 -0.27)"/><path class="cls-9" d="M211.1,304,210,302l.65-1.14L212,301C211.69,302,211.4,303,211.1,304Z" transform="translate(0.04 -0.27)"/><path class="cls-4" d="M212,301l-1.32-.13c.14-.3.29-.6.43-.89.33,0,.65,0,1,0Z" transform="translate(0.04 -0.27)"/><path class="cls-9" d="M209,309.91a1.29,1.29,0,0,1,.25-.69l.08.4Z" transform="translate(0.04 -0.27)"/><path class="cls-21" d="M205.94,107.05c.36,1.1.74,2.19,1.07,3.29,2,6.92.24,12.89-4.55,16.52-7,5.29-13.92,4-19.62.23a32.42,32.42,0,0,1-2.66-2.18,50.6,50.6,0,0,1-1.17-6.28c-.63-9.61,1.81-13,11.07-14.15C195.46,103.83,201.37,101.91,205.94,107.05Zm-19.18,9.11a7.16,7.16,0,0,0,7.39,7c4.41-.27,8.52-4.28,8.46-8.27s-3.74-7.17-8.06-7.12C189.79,107.83,186.67,111.19,186.76,116.16Z" transform="translate(0.04 -0.27)"/><path class="cls-16" d="M225.77,105.7,225,108Z" transform="translate(0.04 -0.27)"/><path class="cls-25" d="M249.93,135.8a1.79,1.79,0,0,1,.13-.76l1.32.38Z" transform="translate(0.04 -0.27)"/><path class="cls-29" d="M278.86,78.15,259,71.68l.63-2,20,6.12Z" transform="translate(0.04 -0.27)"/><path class="cls-8" d="M289.1,87.9l-5-.87Z" transform="translate(0.04 -0.27)"/><path class="cls-7" d="M239,131.09c-7.86-1.36-11.71-7.2-11.29-17.1,3.11-10.5,7.39-14.6,16.12-14.62,6.38,0,11.86,2.6,14.68,8.52,2.73,5.76,3.33,11.81-1.43,17.18l-1.58-1.51c2.81-6.11,2.47-12-1.8-17.26-3.65-4.46-8.79-4.13-13.79-2.84-6.38,1.66-8,7-8.87,12.54-1,6.52,3.12,10,8,13Z" transform="translate(0.04 -0.27)"/><path class="cls-8" d="M255.54,123.56l1.58,1.51-7.19,5.73-10.89.29c0-.7,0-1.41,0-2.11C245.33,129.52,251.06,128.46,255.54,123.56Z" transform="translate(0.04 -0.27)"/><path class="cls-25" d="M247.89,134.93l-2.77,0,2.74-.74A2.9,2.9,0,0,1,247.89,134.93Z" transform="translate(0.04 -0.27)"/><path class="cls-25" d="M243,135.27l-1.86,0Z" transform="translate(0.04 -0.27)"/><path class="cls-2" d="M186.76,116.16c-.09-5,3-8.33,7.79-8.38,4.32,0,8,3.21,8.06,7.12s-4.05,8-8.46,8.27A7.16,7.16,0,0,1,186.76,116.16Z" transform="translate(0.04 -0.27)"/><path class="cls-21" d="M255.54,123.56c-4.48,4.9-10.21,6-16.48,5.42-4.86-3-9-6.46-8-13,.89-5.58,2.49-10.88,8.87-12.54,5-1.29,10.14-1.62,13.79,2.84C258,111.51,258.35,117.45,255.54,123.56Zm-17.83-8.85c-.1,5.15,2.75,8.29,6.55,8.39,3,.09,6.88-3.71,6.61-6.83-.34-4.08-2.78-6.07-6.89-6.25S237.94,111.91,237.71,114.71Z" transform="translate(0.04 -0.27)"/><path class="cls-2" d="M237.71,114.71c.23-2.8,2.1-4.88,6.27-4.69s6.55,2.17,6.89,6.25c.27,3.12-3.6,6.92-6.61,6.83C240.46,123,237.61,119.86,237.71,114.71Z" transform="translate(0.04 -0.27)"/></svg>