<svg xmlns="http://www.w3.org/2000/svg" viewBox="0 0 1024 1024"><defs><style>.cls-1{fill:#fff;}</style></defs><g id="mark"><g id="mark-white"><path class="cls-1" d="M718.25,512H427.62V391.18c0-46.41,37.15-85,83.56-85.43a84.51,84.51,0,0,1,85.2,84.38v18.75A28.05,28.05,0,0,0,624.5,437H662a28.05,28.05,0,0,0,28.12-28.12V390.13c0-98.44-80.27-178.48-178.71-178.13S333.88,293.45,333.88,391.88V512H305.75a56.27,56.27,0,0,0-56.25,56.25v187.5A56.27,56.27,0,0,0,305.75,812h412.5a56.27,56.27,0,0,0,56.25-56.25V568.25A56.27,56.27,0,0,0,718.25,512Z"/></g></g></svg>