<svg id="wordmark" xmlns="http://www.w3.org/2000/svg" viewBox="0 0 896 227"><g id="wordmark-black"><path d="M287.18,124.89v74.73H245.47V24.91h40.35V92.64h1.45A38,38,0,0,1,301.81,73.7q10.11-6.81,24.79-6.82,13.81,0,24,6.1a41.53,41.53,0,0,1,15.91,17.19q5.67,11.08,5.59,25.93v83.52H330.43V124.29q.09-10.92-5.46-17.06t-15.61-6.14A22.81,22.81,0,0,0,297.8,104a19.73,19.73,0,0,0-7.76,8.14A28,28,0,0,0,287.18,124.89Z"/><path d="M423,201.83a55.09,55.09,0,0,1-22.23-4.22,34.06,34.06,0,0,1-15.27-12.79q-5.58-8.58-5.58-21.54,0-10.92,3.84-18.43a32.87,32.87,0,0,1,10.57-12.2,50.49,50.49,0,0,1,15.53-7.12,103.41,103.41,0,0,1,18.77-3.29q11.17-1,18-2.17t9.93-3.33a7.09,7.09,0,0,0,3.12-6.18v-.43q0-6.57-4.52-10.15T443,96.4q-8.28,0-13.31,3.58a15.78,15.78,0,0,0-6.4,9.89l-38.47-1.36a45.59,45.59,0,0,1,8.83-21.37q7.13-9.42,19.62-14.84t30.07-5.42a86.12,86.12,0,0,1,23.12,2.94,58.69,58.69,0,0,1,18.43,8.53A39.4,39.4,0,0,1,497,92a38.91,38.91,0,0,1,4.31,18.52v89.06H462.08V181.36h-1a37.41,37.41,0,0,1-8.91,11.26,36.13,36.13,0,0,1-12.71,6.91A54.29,54.29,0,0,1,423,201.83Zm12.88-27.29A26.61,26.61,0,0,0,448,171.81a22.29,22.29,0,0,0,8.66-7.55A19.62,19.62,0,0,0,459.94,153V140.59a25.51,25.51,0,0,1-4.3,1.7c-1.68.51-3.52,1-5.5,1.45s-4,.85-6.15,1.2-4.12.65-6.05.93a37.53,37.53,0,0,0-10,2.9,15.62,15.62,0,0,0-6.31,5.08,12.58,12.58,0,0,0-2.18,7.38q0,6.48,4.65,9.89T435.89,174.54Z"/><path d="M637.06,68.59l-45,131H544.33l-44.87-131h43.93l24.14,90.25h1.37l24.22-90.25Z"/><path d="M698,202.09q-20.55,0-35.44-8.15a55.31,55.31,0,0,1-22.86-23.28q-8-15.15-8-36,0-20.3,8-35.53a58.19,58.19,0,0,1,22.61-23.71q14.58-8.49,34.37-8.49a72.43,72.43,0,0,1,25.6,4.35,55.1,55.1,0,0,1,20,12.88,58.86,58.86,0,0,1,13.14,21q4.69,12.49,4.69,28.62v10.41H646.29V119.94h75.07a23.5,23.5,0,0,0-3.16-11.86,21.83,21.83,0,0,0-8.4-8.14,26.81,26.81,0,0,0-24.78.17,23.59,23.59,0,0,0-8.79,8.44,24,24,0,0,0-3.41,12.07v24.66a29.83,29.83,0,0,0,3.15,14,22.72,22.72,0,0,0,9,9.34A27.33,27.33,0,0,0,698.75,172a31,31,0,0,0,10.07-1.54,21.46,21.46,0,0,0,7.76-4.52,18.67,18.67,0,0,0,4.86-7.34l38.31,1.11a47.36,47.36,0,0,1-10.46,22.4,52.84,52.84,0,0,1-21.11,14.75Q715.13,202.09,698,202.09Z"/><path d="M811.29,124.89v74.73H769.57v-131h39.67v24h1.45a37,37,0,0,1,14.84-18.89q10.5-6.87,25-6.87,13.82,0,24,6.18A42.27,42.27,0,0,1,890.41,90.3q5.67,11,5.59,25.8v83.52H854.28V124.29q.09-10.92-5.5-17.06t-15.48-6.14A22.81,22.81,0,0,0,821.74,104a19.12,19.12,0,0,0-7.68,8.14A28.66,28.66,0,0,0,811.29,124.89Z"/><path d="M177.34,113.5H67.39V67.79c0-17.56,14.06-32.14,31.61-32.32a32,32,0,0,1,32.23,31.92v7.09a10.62,10.62,0,0,0,10.64,10.65h14.19A10.62,10.62,0,0,0,166.7,74.48V67.39A67.47,67.47,0,0,0,99.09,0C61.85.13,31.92,30.81,31.92,68.06V113.5H21.28A21.28,21.28,0,0,0,0,134.78v70.94A21.28,21.28,0,0,0,21.28,227H177.34a21.28,21.28,0,0,0,21.28-21.28V134.78A21.28,21.28,0,0,0,177.34,113.5Z"/></g></svg>