<svg xmlns="http://www.w3.org/2000/svg" viewBox="0 0 678 182"><g id="word"><g id="word-black"><path d="M43.91,103.85v77.77H.5V-.2h42V70.29H44A39.45,39.45,0,0,1,59.14,50.58q10.52-7.09,25.79-7.1,14.37,0,25,6.35a43.29,43.29,0,0,1,16.56,17.89q5.89,11.53,5.81,27v86.91H88.92V103.23Q89,91.88,83.24,85.47T67,79.08a23.72,23.72,0,0,0-12,3,20.45,20.45,0,0,0-8.07,8.48A29,29,0,0,0,43.91,103.85Z"/><path d="M185.26,183.93a57.55,57.55,0,0,1-23.13-4.39,35.4,35.4,0,0,1-15.89-13.32q-5.81-8.92-5.81-22.42,0-11.36,4-19.17a34.2,34.2,0,0,1,11-12.7,52.52,52.52,0,0,1,16.16-7.41,107,107,0,0,1,19.53-3.42q11.63-1.06,18.73-2.26t10.34-3.47a7.38,7.38,0,0,0,3.24-6.43v-.45c0-4.55-1.56-8.08-4.7-10.56S211.36,74.2,206,74.2q-8.61,0-13.85,3.73a16.38,16.38,0,0,0-6.65,10.3l-40-1.42a47.26,47.26,0,0,1,9.19-22.24q7.41-9.81,20.41-15.45t31.3-5.64a89.22,89.22,0,0,1,24.06,3.07,61,61,0,0,1,19.18,8.87,41.07,41.07,0,0,1,12.65,14.25,40.56,40.56,0,0,1,4.48,19.27v92.68H225.92v-19h-1.06a38.94,38.94,0,0,1-9.28,11.72,37.66,37.66,0,0,1-13.23,7.19A56.59,56.59,0,0,1,185.26,183.93Zm13.41-28.41a27.65,27.65,0,0,0,12.65-2.84,23.23,23.23,0,0,0,9-7.86,20.39,20.39,0,0,0,3.37-11.67v-13a26.13,26.13,0,0,1-4.48,1.77q-2.62.81-5.73,1.51t-6.39,1.24q-3.28.54-6.3,1a38.39,38.39,0,0,0-10.43,3A16.22,16.22,0,0,0,183.8,134a13.07,13.07,0,0,0-2.27,7.68q0,6.75,4.84,10.3T198.67,155.52Z"/><path d="M408,45.26,361.23,181.62H311.52L264.82,45.26h45.72l25.13,93.93h1.42L362.3,45.26Z"/><path d="M471.43,184.2q-21.4,0-36.89-8.48a57.58,57.58,0,0,1-23.79-24.24q-8.31-15.75-8.3-37.51,0-21.12,8.34-37a60.58,60.58,0,0,1,23.53-24.68q15.18-8.84,35.78-8.84A75.29,75.29,0,0,1,496.73,48a57.25,57.25,0,0,1,20.86,13.41A61,61,0,0,1,531.26,83.3q4.89,13,4.89,29.78v10.84H417.63V98.7h78.12a24.48,24.48,0,0,0-3.28-12.34,22.78,22.78,0,0,0-8.75-8.48A25.93,25.93,0,0,0,471,74.82a26.21,26.21,0,0,0-13.05,3.24,24.57,24.57,0,0,0-9.14,8.79,25,25,0,0,0-3.55,12.56v25.66a31,31,0,0,0,3.28,14.6,23.63,23.63,0,0,0,9.32,9.73,28.55,28.55,0,0,0,14.39,3.46,32.31,32.31,0,0,0,10.47-1.6,22.31,22.31,0,0,0,8.08-4.71,19.32,19.32,0,0,0,5.06-7.63l39.86,1.15a49.21,49.21,0,0,1-10.87,23.31,55.14,55.14,0,0,1-22,15.36Q489.28,184.2,471.43,184.2Z"/><path d="M589.34,103.85v77.77H545.93V45.26h41.28v25h1.51a38.51,38.51,0,0,1,15.45-19.66q10.92-7.14,26-7.15,14.39,0,25,6.44a44.06,44.06,0,0,1,16.52,17.93q5.89,11.5,5.81,26.86v86.91H634.09V103.23q.07-11.36-5.73-17.76t-16.11-6.39a23.7,23.7,0,0,0-12,3,19.91,19.91,0,0,0-8,8.48A29.79,29.79,0,0,0,589.34,103.85Z"/></g></g></svg>